<svg width="28" height="28" viewBox="0 0 28 28" fill="none" xmlns="http://www.w3.org/2000/svg">
<path id="Icon" d="M12.6822 4.13566H7.46382C5.37629 4.13566 4.33252 4.13566 3.53519 4.54193C2.83384 4.89928 2.26362 5.4695 1.90626 6.17085C1.5 6.96819 1.5 8.01195 1.5 10.0995V20.5362C1.5 22.6237 1.5 23.6675 1.90626 24.4648C2.26362 25.1662 2.83384 25.7364 3.53519 26.0937C4.33252 26.5 5.37629 26.5 7.46382 26.5H17.9005C19.988 26.5 21.0318 26.5 21.8291 26.0937C22.5305 25.7364 23.1007 25.1662 23.4581 24.4648C23.8643 23.6675 23.8643 22.6237 23.8643 20.5362V15.3178M8.95475 19.0452H11.0353C11.6431 19.0452 11.947 19.0452 12.233 18.9766C12.4865 18.9157 12.7289 18.8153 12.9512 18.679C13.202 18.5254 13.4169 18.3105 13.8467 17.8807L25.728 5.99936C26.7573 4.97007 26.7573 3.30126 25.728 2.27197C24.6987 1.24268 23.0299 1.24268 22.0006 2.27197L10.1193 14.1533C9.68949 14.5831 9.4746 14.798 9.32093 15.0488C9.18468 15.2711 9.08428 15.5135 9.0234 15.767C8.95475 16.053 8.95475 16.3569 8.95475 16.9647V19.0452Z" stroke="#1B1C1E" stroke-width="2" stroke-linecap="round" stroke-linejoin="round"/>
</svg>
