<svg width="26" height="22" viewBox="0 0 26 22" fill="none" xmlns="http://www.w3.org/2000/svg">
<path id="Icon" d="M5.2 20.5H8.2M19 7.4375H19.012M8.2 3.875H4.84C3.49587 3.875 2.82381 3.875 2.31042 4.13386C1.85883 4.36156 1.49168 4.72489 1.26158 5.17177C1 5.67981 1 6.34488 1 7.675V11.95C1 13.2801 1 13.9452 1.26158 14.4532C1.49168 14.9001 1.85883 15.2634 2.31042 15.4911C2.82381 15.75 3.49587 15.75 4.84 15.75H8.2M16.84 20.5H21.16C22.5041 20.5 23.1762 20.5 23.6896 20.2411C24.1412 20.0134 24.5083 19.6501 24.7384 19.2032C25 18.6952 25 18.0301 25 16.7V5.3C25 3.96988 25 3.30481 24.7384 2.79677C24.5083 2.34989 24.1412 1.98656 23.6896 1.75886C23.1762 1.5 22.5041 1.5 21.16 1.5H16.84C15.4959 1.5 14.8238 1.5 14.3104 1.75886C13.8588 1.98656 13.4917 2.34989 13.2616 2.79677C13 3.30481 13 3.96988 13 5.3V16.7C13 18.0301 13 18.6952 13.2616 19.2032C13.4917 19.6501 13.8588 20.0134 14.3104 20.2411C14.8238 20.5 15.4959 20.5 16.84 20.5ZM20.2 14.5625C20.2 15.2183 19.6627 15.75 19 15.75C18.3373 15.75 17.8 15.2183 17.8 14.5625C17.8 13.9067 18.3373 13.375 19 13.375C19.6627 13.375 20.2 13.9067 20.2 14.5625Z" stroke="black" stroke-width="2" stroke-linecap="round" stroke-linejoin="round"/>
</svg>
