<svg width="24" height="22" viewBox="0 0 24 22" fill="none" xmlns="http://www.w3.org/2000/svg">
<path id="Icon" d="M7.6 20.5V5.72222C7.6 4.74059 7.6 4.24977 7.71244 3.84707C8.01759 2.75428 8.90709 1.90071 10.0459 1.6079C10.4655 1.5 10.977 1.5 12 1.5C13.023 1.5 13.5345 1.5 13.9541 1.6079C15.0929 1.90071 15.9824 2.75428 16.2876 3.84707C16.4 4.24977 16.4 4.74059 16.4 5.72222V20.5M4.52 20.5H19.48C20.7121 20.5 21.3282 20.5 21.7988 20.2699C22.2127 20.0675 22.5493 19.7445 22.7602 19.3473C23 18.8957 23 18.3046 23 17.1222V9.1C23 7.91767 23 7.3265 22.7602 6.87491C22.5493 6.47768 22.2127 6.15472 21.7988 5.95232C21.3282 5.72222 20.7121 5.72222 19.48 5.72222H4.52C3.28788 5.72222 2.67183 5.72222 2.20122 5.95232C1.78726 6.15472 1.45071 6.47768 1.23979 6.87491C1 7.3265 1 7.91767 1 9.1V17.1222C1 18.3046 1 18.8957 1.23979 19.3473C1.45071 19.7445 1.78726 20.0675 2.20122 20.2699C2.67183 20.5 3.28788 20.5 4.52 20.5Z" stroke="#0F0F0F" stroke-width="2" stroke-linecap="round" stroke-linejoin="round"/>
</svg>
