<?xml version="1.0" encoding="utf-8"?>
<!-- Generator: Adobe Illustrator 27.5.0, SVG Export Plug-In . SVG Version: 6.00 Build 0)  -->
<svg version="1.1" xmlns="http://www.w3.org/2000/svg" xmlns:xlink="http://www.w3.org/1999/xlink" x="0px" y="0px"
	 viewBox="0 0 750 500" style="enable-background:new 0 0 750 500;" xml:space="preserve">
<g id="BACKGROUND">
	<path style="opacity:0.7;fill:#FFDC8D;" d="M385.044,91.817c0,0,40.465,31.595,110.231-2.747
		c69.767-34.343,163.254-30.222,189.765,54.948s31.396,218.672-96.278,222.54c-115.402,3.497-152.823,22.164-196.078,52.385
		c-43.255,30.222-202.448,41.653-282.324-57.889c-63.945-79.689-79-164-15.837-249.446C173.202,5.172,285.975,17.637,385.044,91.817
		z"/>
</g>
<g id="OBJECTS">
	<g>
		<g>
			<path style="fill:#FFFFFF;" d="M528.089,171.856c0,3.976-3.223,7.199-7.199,7.199H236.986c-3.976,0-7.199-3.223-7.199-7.199
				v-28.795c0-3.976,3.223-7.199,7.199-7.199H520.89c3.976,0,7.199,3.223,7.199,7.199V171.856z"/>
			<path style="fill:#4B6590;" d="M520.89,135.862h-46.342v43.193h46.342c3.976,0,7.199-3.223,7.199-7.199v-28.795
				C528.089,139.085,524.866,135.862,520.89,135.862z"/>
			<g>
				<path style="fill:#FFFFFF;" d="M493.627,140.46c-8.28,2.66-12.837,11.529-10.176,19.81c2.66,8.28,11.529,12.836,19.81,10.176
					c8.28-2.66,12.836-11.529,10.176-19.81C510.776,142.355,501.907,137.799,493.627,140.46z M510.956,151.433
					c2.22,6.91-1.582,14.311-8.492,16.531c-6.91,2.22-14.312-1.582-16.532-8.492c-2.22-6.91,1.582-14.312,8.492-16.532
					S508.736,144.523,510.956,151.433z"/>
				<path style="fill:#FFFFFF;" d="M520.059,171.042c0.64,0.52,0.737,1.461,0.217,2.1l0,0c-0.52,0.64-1.461,0.737-2.1,0.217
					l-8.641-6.966c-0.64-0.52-0.737-1.461-0.217-2.101l0,0c0.52-0.64,1.461-0.737,2.1-0.217L520.059,171.042z"/>
			</g>
		</g>
		<g>
			<polygon style="fill:#7A8DB5;" points="417.917,193.171 411.158,165.704 436.932,177.644 431.107,183.032 437.369,190.749 
				431.107,195.846 424.992,187.983 			"/>
			<polygon style="fill:#4B6590;" points="417.917,193.171 411.158,165.704 434.276,193.267 431.107,195.846 424.992,187.983 			"/>
		</g>
	</g>
	<g>
		<path style="fill:#88D2D0;" d="M339.703,345.884c0,0-12.817-29.129,2.987-64.988c0,0,0.984,10.761-0.73,45.313
			c0,0-1.153-15.064,14.616-40.689c0,0-2.803,24.617-12.509,52.827c0,0,5.603-22.605,15.869-30.341
			C359.937,308.007,358.881,331.979,339.703,345.884z"/>
		<g>
			<g>
				<g>
					<path style="fill:#4B6590;" d="M307.656,258.635c10.014-1.359,21.177-2.164,24.578,9.658c1.493,5.19-0.167,10.563-0.51,15.794
						c-0.287,4.375,1.201,8.428,3.749,11.919c4.892,6.704,14.748,6.27,20.448,12.228c7.179,7.505,4.956,20.81,3.186,29.92
						c-0.138,0.708,0.946,1.01,1.084,0.299c1.771-9.116,3.076-19.057-1.17-27.691c-5.058-10.284-18.576-8.41-24.279-17.898
						c-3.727-6.201-0.887-13.547-0.774-20.201c0.071-4.168-1.503-8.41-4.14-11.594c-5.176-6.249-15.567-4.454-22.471-3.517
						C306.641,257.648,306.947,258.731,307.656,258.635L307.656,258.635z"/>
				</g>
			</g>
			<path style="fill:#4B6590;" d="M309.235,257.751c0,0,0.791,11.872-14.667,7.157C294.568,264.908,299.678,252.7,309.235,257.751z"
				/>
			<path style="fill:#4B6590;" d="M343.896,301.443c0,0,8.939,7.853-5.339,15.422C338.556,316.865,333.56,304.61,343.896,301.443z"
				/>
			<path style="fill:#4B6590;" d="M335.358,295.868c0,0,0.791,11.872-14.667,7.157C320.692,303.024,325.801,290.816,335.358,295.868
				z"/>
			<path style="fill:#4B6590;" d="M338.872,297.799c0,0-4.707-10.928,11.438-11.64C350.311,286.159,349.568,299.372,338.872,297.799
				z"/>
			<path style="fill:#4B6590;" d="M332.174,286.695c0,0-5.986,10.283-16.161-2.272C316.014,284.423,327.078,277.162,332.174,286.695
				z"/>
			<path style="fill:#4B6590;" d="M333.309,278.724c0,0,5.455-10.575,16.255,1.447C349.565,280.17,338.884,287.985,333.309,278.724z
				"/>
			<path style="fill:#4B6590;" d="M332.912,267.339c0,0,2.091-11.713,15.958-3.415C348.87,263.924,340.972,274.543,332.912,267.339z
				"/>
			<path style="fill:#4B6590;" d="M332.89,272.107c0,0-2.992,11.516-16.175,2.168C316.715,274.275,325.413,264.3,332.89,272.107z"/>
			<path style="fill:#4B6590;" d="M328.768,260.288c0,0-5.741-10.422,10.26-12.691C339.029,247.597,339.565,260.82,328.768,260.288z
				"/>
			<path style="fill:#4B6590;" d="M321.444,258.123c0,0,7.564,9.185-7.744,14.365C313.7,272.488,310.734,259.591,321.444,258.123z"
				/>
			<path style="fill:#4B6590;" d="M317.89,256.968c0,0-11.898-0.128-6.003-15.175C311.887,241.793,323.665,247.829,317.89,256.968z"
				/>
		</g>
		<path style="fill:#88D2D0;" d="M352.36,436.055c0,0-42.801-36.98-92.682-36.393c0,0,12.108,6.529,53.418,21.787
			c0,0-17.062-8.877-54.943-3.218c0,0,30.223,9.019,68.101,11.75c0,0-29.267-4.735-43.453,3.419
			C282.801,433.4,326.496,451.561,352.36,436.055z"/>
		<path style="fill:#88D2D0;" d="M339.527,348.303c0,0,3.463-31.635-22.395-61.08c0,0,2.298,10.559,14.325,42.995
			c0,0-3.432-14.714-26.177-34.409c0,0,10.077,22.634,27.818,46.618c0,0-12.143-19.873-24.26-24.163
			C308.839,318.265,317.055,340.809,339.527,348.303z"/>
		<path style="fill:#88D2D0;" d="M442.06,264.724c0,0,21.822-23.165,18.92-62.244c0,0-4.526,9.812-14.467,42.948
			c0,0,6.125-13.811-0.166-43.234c0,0-5.591,24.137-5.879,53.968c0,0,2.28-23.178-4.808-33.901
			C435.66,222.261,428.637,245.205,442.06,264.724z"/>
		<path style="fill:#88D2D0;" d="M486.193,314.671c0,0-2.902-31.228,21.313-61.464c0,0-2.228,10.562-13.67,43.208
			c0,0,3.317-14.727,24.558-35.171c0,0-9.544,22.848-26.194,47.343c0,0,11.429-20.194,22.685-24.934
			C514.885,283.653,507.065,306.337,486.193,314.671z"/>
		<path style="fill:#88D2D0;" d="M454.141,435.092c0,0,7.075-40.635,51.753-64.331c0,0-6.885,11.885-34.544,45.983
			c0,0,20.988-24.487,58.011-37.69c0,0-32.601,31.012-64.642,51.926c0,0,23.2-18.572,40.646-17.968
			C505.364,413.013,486.327,436.781,454.141,435.092z"/>
		<g>
			<g>
				<g>
					<path style="fill:#4B6590;" d="M245.412,376.535c4.325,5.703,9.206,11.914,16.144,14.518c8.688,3.26,18.454-0.197,26.764,3.486
						c7.153,3.17,11.326,10.972,17.872,15.159c9.411,6.019,20.754,3.141,30.39-0.539c1.043-0.398,0.591-2.09-0.465-1.687
						c-11.021,4.209-22.67,6.313-32.455-1.775c-4.993-4.127-8.583-9.632-14.458-12.669c-6.719-3.473-14.998-1.088-22.229-2.267
						c-8.952-1.459-14.849-8.248-20.051-15.109C246.25,374.765,244.73,375.635,245.412,376.535L245.412,376.535z"/>
				</g>
			</g>
			<path style="fill:#4B6590;" d="M249.397,379.834c0,0-12.428,2.428-9.523-14.524C239.874,365.309,253.448,369.066,249.397,379.834
				z"/>
			<path style="fill:#4B6590;" d="M296.706,398.773c0,0-11.599-5.081,0.441-17.362C297.147,381.41,306.167,392.228,296.706,398.773z
				"/>
			<path style="fill:#4B6590;" d="M309.752,411.007c0,0,9.714,8.124-5.283,16.545C304.469,427.552,298.837,414.643,309.752,411.007z
				"/>
			<path style="fill:#4B6590;" d="M300.955,405.309c0,0,2.658,12.381-14.345,9.792C286.61,415.1,290.113,401.458,300.955,405.309z"
				/>
			<path style="fill:#4B6590;" d="M287.914,393.929c0,0,5.448,11.431-11.694,12.842C276.22,406.771,276.476,392.689,287.914,393.929
				z"/>
			<path style="fill:#4B6590;" d="M276.215,391.644c0,0-10.73-4.028-0.445-15.713C275.77,375.931,284.448,385.269,276.215,391.644z"
				/>
			<path style="fill:#4B6590;" d="M265.409,392.275c0,0,10.833,6.557-2.713,17.155C262.695,409.43,255.171,397.523,265.409,392.275z
				"/>
			<path style="fill:#4B6590;" d="M252.564,384.689c0,0-0.461,12.655-16.309,5.972C236.255,390.661,242.999,378.296,252.564,384.689
				z"/>
			<path style="fill:#4B6590;" d="M260.391,388.794c0,0-9.885-7.915,4.929-16.654C265.319,372.14,271.226,384.926,260.391,388.794z"
				/>
		</g>
		<g>
			<path style="fill:#76B7B3;" d="M361.857,430.399c0,0,11.18-50.929-14.906-55.277c-31.537-5.256-9.827-34.06-35.402-38.507
				c-25.575-4.448-10.125-35.857-29.028-44.753c-18.903-8.896-17.791,18.347-5.56,34.471c12.231,16.123-17.235,27.799,16.679,48.926
				c33.915,21.127-11.675,36.694,45.59,56.154C396.496,450.871,361.857,430.399,361.857,430.399z"/>
			<path style="opacity:0.2;fill:#C1EEE6;" d="M363.303,438.713c-0.668-0.892-1.35-1.796-2.066-2.725
				c-52.096-67.601-88.089-145.107-88.192-145.329c-8.437,3.472-5.694,23.003,3.918,35.673
				c12.232,16.123-17.235,27.799,16.679,48.926s-11.675,36.694,45.59,56.154C350.492,435.238,358.187,437.516,363.303,438.713z"/>
		</g>
		<g>
			<path style="fill:#76B7B3;" d="M366.344,433.161c0,0,42.526-30.171,26.146-50.932c-19.804-25.101,15.635-31.815-0.3-52.307
				c-15.935-20.492,16.624-33.345,8.617-52.642c-8.006-19.297-25.506,1.612-27.298,21.77c-1.792,20.158-31.451,8.981-20.562,47.425
				c10.889,38.445-33.32,19.303-4.028,72.218C378.21,471.608,366.344,433.161,366.344,433.161z"/>
			<path style="opacity:0.2;fill:#C1EEE6;" d="M361.822,440.286c0.106-1.11,0.208-2.237,0.303-3.406
				c6.912-85.066,32.404-166.63,32.477-166.864c-8.578-3.105-19.685,13.194-21.093,29.034c-1.792,20.158-31.451,8.98-20.562,47.425
				c10.889,38.445-33.319,19.303-4.028,72.218C354.678,429.099,358.841,435.96,361.822,440.286z"/>
		</g>
		<g>
			<path style="fill:#76B7B3;" d="M418.04,355.518c0,0-10.63-48.427,14.174-52.561c29.988-4.998,9.344-32.386,33.663-36.616
				c24.319-4.229,9.627-34.096,27.602-42.555c17.975-8.459,16.917,17.446,5.287,32.777c-11.631,15.331,16.389,26.433-15.86,46.523
				c-32.249,20.089,11.102,34.892-43.35,53.395C385.103,374.985,418.04,355.518,418.04,355.518z"/>
			<path style="opacity:0.2;fill:#C1EEE6;" d="M416.666,363.424c0.636-0.849,1.284-1.707,1.965-2.591
				c49.537-64.281,83.761-137.979,83.86-138.19c8.022,3.301,5.414,21.873-3.725,33.92c-11.631,15.331,16.389,26.433-15.86,46.523
				c-32.249,20.089,11.102,34.892-43.35,53.395C428.847,360.12,421.53,362.285,416.666,363.424z"/>
		</g>
	</g>
	<g>
		<g>
			<ellipse style="opacity:0.1;fill:#2F3F5C;" cx="492.814" cy="448.088" rx="180.821" ry="9.715"/>
		</g>
		<g>
			<g>
				<g>
					<path style="fill:#2F3F5C;" d="M485.186,439.275c0,0-52.161,18.253,8.181,7.446l1.521-10.758L485.186,439.275z"/>
					<path style="fill:#2F3F5C;" d="M624.74,435.5c0,0,49.993,36.404,7.854-8.119l-9.829,4.63L624.74,435.5z"/>
				</g>
				<g>
					<path style="fill:#4B6590;" d="M583.334,304.562c0,0,18.248,25.341,9.309,53.435c-8.94,28.093-28.009,48.682-31.875,57.57
						c0,0,12.195-5.354,28.292-1.723c16.097,3.63,37.839,14.669,37.839,14.669l0.697,11.875c0,0-88.17,8.299-99.729,3.453
						c-11.56-4.846,8.557-87.518,8.557-87.518s-28.415,1.855-44.472-3.125c0,0,8.21,11.498,9.763,34.952
						c1.552,23.454-6.924,51.111-6.924,51.111l-13.056,0.061c0,0-22.231-84.84-17.5-107.657
						c4.731-22.817,70.764-18.149,70.764-18.149l7.502-15.082L583.334,304.562z"/>
					<path style="opacity:0.5;fill:#2F3F5C;" d="M553.822,311.4c9.7,0.959,22.785,2.238,32.06-2.645
						c-0.964-1.6-2.985-4.543-2.985-4.543l-40.398-5.779l-5.034,10.121C542.822,309.879,548.275,310.852,553.822,311.4z"/>
					<path style="opacity:0.5;fill:#2F3F5C;" d="M536.423,356.322c0,0-0.048,0.28-0.133,0.786c0.19-0.228,0.417-0.422,0.678-0.583
						c-9.037-11.898-11.221-28.919-14.434-43.401c-19.377-0.089-54.878,2.033-58.301,18.539
						c-4.731,22.817,17.5,107.657,17.5,107.657l13.056-0.061c0,0,8.476-27.657,6.924-51.111
						c-1.552-23.454-9.763-34.952-9.763-34.952C508.009,358.177,536.423,356.322,536.423,356.322z"/>
				</g>
			</g>
			<g>
				<g>
					<g>
						<path style="fill:#D1634A;" d="M583.847,179.449c0,0-21.147-8.661-29.547,7.499c-8.4,16.161-2.623,26.789-19.161,37.06
							c-16.538,10.27-16.343,32.111,0.188,42.999c16.53,10.888,46.546-5.475,46.546-5.475L583.847,179.449z"/>
						<g>
							<path style="fill:#D1634A;" d="M584.895,180.884c0,0-0.455-0.211-1.333-0.546c-0.879-0.332-2.182-0.787-3.876-1.231
								c-1.694-0.439-3.785-0.866-6.211-1.045c-2.417-0.151-5.196-0.079-8.054,0.74c-2.846,0.798-5.751,2.425-7.963,5
								c-1.121,1.288-2.071,2.694-2.896,4.326c-0.896,1.586-1.656,3.229-2.386,4.945c-1.453,3.441-2.481,7.171-3.593,10.97
								c-1.083,3.789-2.529,7.693-5.031,10.965c-2.481,3.283-5.866,5.736-9.354,7.63c-3.44,1.928-6.452,4.29-8.74,7.219
								c-2.288,2.897-3.863,6.216-4.539,9.547c-0.709,3.325-0.656,6.589-0.148,9.522c0.184,0.721,0.365,1.426,0.541,2.116
								c0.095,0.343,0.167,0.69,0.276,1.019c0.128,0.324,0.254,0.644,0.378,0.96c0.247,0.633,0.488,1.251,0.722,1.851
								c0.306,0.567,0.602,1.118,0.89,1.652c0.306,0.523,0.53,1.076,0.878,1.526c0.329,0.463,0.647,0.909,0.952,1.338
								c0.314,0.422,0.58,0.856,0.897,1.22c0.325,0.357,0.636,0.698,0.93,1.021c0.606,0.63,1.08,1.264,1.612,1.69
								c0.515,0.446,0.952,0.825,1.307,1.133c0.711,0.616,1.09,0.944,1.09,0.944s-0.388-0.317-1.116-0.912
								c-0.365-0.298-0.814-0.665-1.343-1.097c-0.547-0.413-1.039-1.033-1.667-1.649c-0.306-0.317-0.628-0.65-0.966-1
								c-0.33-0.357-0.611-0.785-0.94-1.202c-0.321-0.424-0.654-0.865-1.001-1.323c-0.366-0.446-0.608-0.996-0.934-1.517
								c-0.307-0.533-0.625-1.084-0.951-1.65c-0.256-0.603-0.519-1.222-0.79-1.858c-0.134-0.319-0.271-0.642-0.408-0.969
								c-0.117-0.334-0.197-0.686-0.299-1.034c-0.191-0.701-0.401-1.416-0.587-2.153c-0.569-2.987-0.681-6.335-0.006-9.771
								c0.64-3.44,2.202-6.911,4.567-9.912c0.524-0.806,1.241-1.459,1.899-2.171c0.337-0.349,0.665-0.71,1.014-1.052l1.148-0.935
								c1.503-1.351,3.192-2.246,4.9-3.332c3.417-1.877,6.671-4.278,9.029-7.43c2.41-3.119,3.836-6.869,4.936-10.64
								c1.126-3.769,2.188-7.546,3.682-11.033c0.752-1.736,1.548-3.457,2.467-5.003c0.832-1.587,1.896-3.126,3.063-4.412
								c2.344-2.638,5.398-4.282,8.337-5.052c2.954-0.807,5.788-0.79,8.227-0.565c2.448,0.252,4.537,0.743,6.225,1.233
								c1.688,0.495,2.979,0.989,3.849,1.346C584.446,180.66,584.895,180.884,584.895,180.884z"/>
						</g>
					</g>
					<g>
						<path style="fill:#FFC1B7;" d="M567.499,232.544c0,0,0.3,12.299-1.5,13.499c-1.8,1.2-15.898-7.499-24.897,0.3
							c-8.999,7.799,14.998,38.696,21.898,38.996c6.899,0.3,33.296-7.799,32.996-16.498c-0.3-8.699-14.698-17.698-13.498-35.696
							C583.697,215.146,567.499,232.544,567.499,232.544z"/>
						<path style="fill:#FFA398;" d="M567.174,242.115c5.352-0.041,10.574-0.889,15.389-3.175c-0.162-1.851-0.201-3.778-0.067-5.796
							c1.2-17.998-14.998-0.6-14.998-0.6S567.634,238.107,567.174,242.115z"/>
						<path style="fill:#FFC1B7;" d="M579.422,185.674c0,0-14.853-1.117-20.998,14.486c-6.374,16.186-6.074,33.628,9.524,36.289
							c15.598,2.661,30.222-11.234,31.122-23.059C599.97,201.564,597.72,187.152,579.422,185.674z"/>
					</g>
					<g>
						<g>
							<path style="fill:#DE7356;" d="M574.323,186.799c0,0-2.475,11.249,14.173,21.148c0,0-20.698,37.571-3.15,49.27
								c17.548,11.699-1.134,28.261,6.74,37.035c7.874,8.774,33.991,3.916,44.329-19.262c13.948-31.272-31.722-36.896-23.622-63.443
								c0,0,6.524-19.348-7.874-30.147C590.977,170.943,576.573,173.75,574.323,186.799z"/>
							<g>
								<path style="fill:#DE7356;" d="M639.034,275.4c0,0,0.174-0.537,0.499-1.543c0.368-0.995,0.732-2.505,1.121-4.419
									c0.297-1.934,0.54-4.317,0.197-7.007c-0.369-2.677-1.338-5.613-3.081-8.439c-1.727-2.836-4.117-5.571-6.866-8.252
									c-2.753-2.687-5.873-5.316-8.947-8.275c-1.543-1.469-3.068-3.033-4.493-4.742c-1.439-1.691-2.754-3.57-3.766-5.652
									c-1.007-2.071-1.79-4.338-1.99-6.701c-0.111-0.584-0.073-1.177-0.098-1.767c-0.013-0.591-0.037-1.184,0.047-1.768
									l0.175-1.76l0.363-1.722c1.165-4.314,1.587-8.716,1.142-13.022c-0.445-4.277-1.834-8.392-4.233-11.688
									c-1.189-1.651-2.607-3.087-4.138-4.322c-0.385-0.288-0.789-0.626-1.153-0.871c-0.42-0.277-0.838-0.552-1.253-0.826
									c-0.415-0.273-0.828-0.544-1.238-0.814c-0.418-0.228-0.833-0.454-1.246-0.679c-3.302-1.807-6.767-3.003-10.038-3.367
									c-3.271-0.37-6.354,0.097-8.764,1.263c-2.433,1.15-4.075,2.954-5.109,4.582c-0.243,0.423-0.473,0.823-0.689,1.199
									c-0.205,0.383-0.322,0.777-0.472,1.126c-0.14,0.355-0.27,0.683-0.39,0.983c-0.106,0.305-0.152,0.597-0.22,0.851
									c-0.246,1.028-0.378,1.576-0.378,1.576s0.096-0.556,0.276-1.6c0.052-0.26,0.081-0.558,0.167-0.872
									c0.101-0.311,0.21-0.65,0.329-1.017c0.13-0.363,0.223-0.774,0.41-1.176c0.203-0.396,0.418-0.817,0.646-1.261
									c0.98-1.721,2.597-3.689,5.105-5.027c2.479-1.357,5.734-2.011,9.19-1.723c3.468,0.265,7.102,1.378,10.632,3.213
									c0.444,0.23,0.89,0.461,1.34,0.693c0.417,0.26,0.837,0.521,1.259,0.784c0.422,0.263,0.846,0.528,1.273,0.795
									c0.477,0.306,0.857,0.614,1.294,0.924c1.675,1.27,3.213,2.811,4.528,4.569c2.633,3.524,4.24,7.943,4.711,12.484
									c0.502,4.531,0.053,9.26-1.116,13.655l-0.344,1.586l-0.165,1.604c-0.083,0.534-0.06,1.069-0.05,1.603
									c0.02,0.533-0.023,1.071,0.079,1.596c0.165,2.13,0.863,4.174,1.779,6.085c0.925,1.914,2.128,3.693,3.481,5.336
									c1.338,1.654,2.795,3.198,4.293,4.666c2.988,2.94,6.048,5.676,8.779,8.472c2.738,2.785,5.115,5.697,6.806,8.71
									c1.729,2.996,2.595,6.128,2.839,8.91c0.222,2.798-0.145,5.215-0.538,7.158c-0.477,1.935-0.966,3.412-1.387,4.381
									C639.242,274.875,639.034,275.4,639.034,275.4z"/>
							</g>
						</g>
						<path style="fill:#FFC1B7;" d="M592.771,211.546l-4.275,11.249c0,0,4.808,4.13,8.999-3.15
							C601.77,212.221,597.271,208.171,592.771,211.546z"/>
					</g>
				</g>
				<g>
					<path style="fill:#FFFFFF;" d="M593.896,223.47c0,1.118-0.906,2.025-2.025,2.025c-1.118,0-2.025-0.907-2.025-2.025
						c0-1.118,0.906-2.025,2.025-2.025C592.989,221.445,593.896,222.352,593.896,223.47z"/>
					<g>
						<g>
							<path style="fill:#DD9B94;" d="M569.898,205.247c-0.865,1.785-1.916,3.428-3.026,5.027c-0.27,0.405-0.567,0.791-0.852,1.184
								c-0.286,0.393-0.574,0.785-0.878,1.165c-0.591,0.773-1.212,1.522-1.841,2.265l-0.155-0.825
								c1.242,0.893,2.47,1.811,3.602,2.882c-1.467-0.528-2.839-1.21-4.197-1.917l-0.527-0.275l0.373-0.551
								c0.546-0.806,1.099-1.607,1.684-2.384c0.283-0.396,0.583-0.778,0.884-1.16c0.302-0.381,0.593-0.771,0.91-1.14
								C567.115,208.018,568.414,206.562,569.898,205.247z"/>
						</g>
						<g>
							<path style="fill:#2F3F5C;" d="M559.968,201.497c0,0-0.072,0.255-0.173,0.695c-0.101,0.44-0.236,1.068-0.314,1.807
								c-0.032,0.37-0.042,0.765-0.027,1.168c0.038,0.399,0.103,0.81,0.254,1.174c0.117,0.387,0.392,0.673,0.667,0.946
								c0.137,0.14,0.339,0.222,0.5,0.344c0.19,0.092,0.404,0.156,0.602,0.241c0,0,0.098,0.036,0.027,0.018l0.094,0.023l0.188,0.045
								l0.375,0.091c0.252,0.062,0.416,0.033,0.627,0.065c0.202,0.012,0.421-0.029,0.631-0.026c0.207-0.035,0.412-0.082,0.614-0.13
								c0.389-0.143,0.774-0.299,1.111-0.523c0.336-0.219,0.65-0.458,0.918-0.709c0.539-0.5,0.947-0.994,1.221-1.35
								c0.276-0.357,0.42-0.579,0.42-0.579s-0.038,0.262-0.182,0.704c-0.074,0.219-0.168,0.489-0.316,0.779
								c-0.139,0.296-0.314,0.625-0.558,0.955c-0.465,0.666-1.179,1.402-2.203,1.839c-0.258,0.092-0.529,0.182-0.806,0.252
								c-0.285,0.038-0.565,0.102-0.87,0.092c-0.293-0.019-0.649-0.018-0.897-0.073l-0.378-0.079l-0.189-0.04l-0.095-0.02
								c-0.133-0.036-0.097-0.032-0.154-0.052c-0.275-0.118-0.554-0.218-0.819-0.36c-0.251-0.181-0.525-0.323-0.742-0.546
								c-0.211-0.229-0.443-0.441-0.569-0.723l-0.214-0.397l-0.131-0.415c-0.177-0.548-0.161-1.087-0.132-1.57
								c0.045-0.483,0.154-0.919,0.276-1.307c0.248-0.775,0.578-1.357,0.822-1.749C559.797,201.698,559.968,201.497,559.968,201.497
								z"/>
						</g>
						<g>
							<path style="fill:#2F3F5C;" d="M575.266,207.796c0,0-0.072,0.255-0.173,0.696c-0.101,0.44-0.236,1.068-0.313,1.807
								c-0.032,0.37-0.042,0.765-0.027,1.168c0.038,0.399,0.103,0.81,0.254,1.174c0.117,0.387,0.392,0.673,0.668,0.946
								c0.137,0.14,0.339,0.222,0.5,0.344c0.19,0.092,0.404,0.156,0.602,0.241c0,0,0.098,0.036,0.026,0.018l0.094,0.023l0.188,0.045
								l0.375,0.091c0.253,0.062,0.416,0.033,0.627,0.065c0.201,0.012,0.421-0.029,0.631-0.027c0.207-0.035,0.412-0.082,0.614-0.13
								c0.39-0.143,0.774-0.299,1.111-0.523c0.336-0.219,0.65-0.458,0.918-0.709c0.539-0.5,0.947-0.994,1.221-1.35
								c0.275-0.357,0.42-0.579,0.42-0.579s-0.037,0.262-0.182,0.704c-0.074,0.219-0.168,0.489-0.316,0.779
								c-0.139,0.296-0.315,0.625-0.558,0.955c-0.465,0.666-1.18,1.402-2.203,1.839c-0.258,0.092-0.529,0.182-0.806,0.252
								c-0.285,0.038-0.565,0.102-0.87,0.092c-0.293-0.019-0.649-0.018-0.897-0.073l-0.378-0.079l-0.189-0.04l-0.095-0.02
								c-0.133-0.036-0.097-0.032-0.154-0.052c-0.275-0.118-0.554-0.218-0.819-0.36c-0.251-0.181-0.525-0.323-0.742-0.546
								c-0.211-0.229-0.443-0.441-0.569-0.722l-0.214-0.397l-0.131-0.415c-0.177-0.548-0.161-1.087-0.133-1.57
								c0.045-0.483,0.154-0.919,0.276-1.307c0.249-0.775,0.579-1.357,0.822-1.749C575.095,207.997,575.266,207.796,575.266,207.796
								z"/>
						</g>
						<g>
							<path style="fill:#DD9B94;" d="M561.799,222.045c0,0,0.691,0.323,1.698,0.678c0.506,0.175,1.091,0.362,1.724,0.516
								c0.313,0.09,0.644,0.147,0.977,0.212c0.33,0.079,0.675,0.108,1.014,0.166c0.34,0.053,0.686,0.064,1.023,0.111
								c0.342,0.019,0.678,0.038,1.003,0.056c0.326-0.008,0.645-0.004,0.95,0.003c0.305,0.006,0.592-0.027,0.863-0.026
								c0.543-0.001,0.995-0.053,1.323-0.06c0.327-0.011,0.522-0.006,0.522-0.006s-0.158,0.103-0.447,0.264
								c-0.291,0.154-0.707,0.4-1.252,0.564c-0.27,0.086-0.561,0.21-0.884,0.265c-0.321,0.064-0.662,0.142-1.019,0.184
								c-0.358,0.02-0.732,0.064-1.111,0.065c-0.379-0.019-0.767-0.031-1.15-0.082c-0.381-0.072-0.767-0.113-1.131-0.23
								c-0.371-0.09-0.722-0.223-1.057-0.361c-0.342-0.116-0.644-0.304-0.938-0.451c-0.285-0.169-0.551-0.33-0.777-0.51
								C562.198,222.72,561.799,222.045,561.799,222.045z"/>
						</g>
						<g>
							<path style="fill:#D1634A;" d="M576.048,201.947c0,0,0.194-0.156,0.575-0.33c0.379-0.178,0.945-0.384,1.653-0.496
								c0.708-0.124,1.555-0.124,2.454,0.021c0.445,0.09,0.913,0.181,1.359,0.364c0.462,0.146,0.897,0.375,1.329,0.613
								c0.439,0.225,0.814,0.552,1.198,0.842c0.374,0.303,0.682,0.671,0.991,1.001c0.291,0.349,0.517,0.73,0.739,1.074
								c0.229,0.34,0.348,0.722,0.49,1.045c0.281,0.652,0.354,1.256,0.411,1.664c0.053,0.41,0.05,0.65,0.05,0.65
								s-0.212-0.141-0.524-0.397c-0.154-0.129-0.346-0.279-0.536-0.463c-0.185-0.188-0.446-0.356-0.686-0.561
								c-0.254-0.193-0.474-0.442-0.768-0.638c-0.269-0.209-0.552-0.43-0.846-0.658c-0.31-0.197-0.599-0.43-0.91-0.636
								c-0.333-0.175-0.615-0.433-0.961-0.588c-0.644-0.392-1.329-0.714-1.994-1.018c-0.67-0.285-1.326-0.559-1.919-0.764
								c-0.591-0.227-1.114-0.395-1.493-0.524C576.271,202.021,576.048,201.947,576.048,201.947z"/>
						</g>
						<g>
							<path style="fill:#D1634A;" d="M561.173,195.689c0,0,0.134-0.176,0.436-0.398c0.299-0.216,0.767-0.499,1.386-0.674
								c0.615-0.177,1.388-0.278,2.202-0.161c0.822,0.085,1.662,0.402,2.422,0.83c0.351,0.251,0.738,0.468,1.035,0.767
								c0.301,0.292,0.614,0.57,0.84,0.892c0.233,0.317,0.447,0.631,0.628,0.935c0.156,0.321,0.29,0.629,0.402,0.915
								c0.121,0.281,0.189,0.559,0.233,0.81c0.058,0.243,0.082,0.467,0.106,0.646c0.044,0.361,0.038,0.576,0.038,0.576
								s-0.202-0.104-0.499-0.301c-0.314-0.184-0.666-0.507-1.142-0.81c-0.227-0.16-0.46-0.336-0.692-0.527
								c-0.249-0.172-0.508-0.345-0.753-0.539c-0.242-0.201-0.531-0.339-0.777-0.538c-0.256-0.188-0.536-0.326-0.795-0.505
								c-0.27-0.151-0.541-0.302-0.807-0.451c-0.277-0.121-0.539-0.281-0.816-0.385c-0.27-0.131-0.543-0.224-0.809-0.333
								c-0.267-0.091-0.53-0.194-0.781-0.265c-0.505-0.173-0.961-0.272-1.301-0.362
								C561.374,195.734,561.173,195.689,561.173,195.689z"/>
						</g>
					</g>
				</g>
			</g>
			<g>
				<g>
					<g>
						<path style="fill:#FFC1B7;" d="M528.653,263.29l-13.948,15.298l-51.294-18.898l-1.8,11.249c0,0,49.495,26.997,54.444,26.997
							c4.95,0,28.797-25.647,28.797-25.647L528.653,263.29z"/>
						<path style="fill:#FFA398;" d="M485.912,267.981l-22.502-8.29l-1.8,11.249c0,0,18.989,10.357,34.62,18.242
							C492.991,282.013,489.699,274.872,485.912,267.981z"/>
						<path style="fill:#FFA398;" d="M540.947,276.401c2.368-2.46,3.904-4.112,3.904-4.112l-16.198-8.999l-3.293,3.612
							C530.564,270.065,535.394,273.879,540.947,276.401z"/>
						<path style="fill:#FFA398;" d="M470.035,263.86c0,0-0.191-22.7-3.052-3.434C464.122,279.693,470.035,263.86,470.035,263.86z"
							/>
					</g>
					<path style="fill:#88D2D0;" d="M537.016,271.861l-11.737-8.486c0,0,12.639-19.32,22.722-20.032
						C548.001,243.342,537.919,263.375,537.016,271.861z"/>
				</g>
				<g>
					<path style="fill:#88D2D0;" d="M548.001,243.342c0,0-3.9,14.398,13.499,21.298c17.398,6.899,24.897-9.899,30.597-0.3
						c5.699,9.599-8.099,41.095-8.099,41.095s-23.997,1.8-41.995-6.599c0,0-0.9-6.899-1.2-13.198c0,0-17.098-7.949,0-28.197
						l0.3-11.099C541.102,246.342,543.201,243.342,548.001,243.342z"/>
					<path style="opacity:0.2;fill:#2F3F5C;" d="M576.305,292.931c-8.249-1.033-16.539-2.235-24.683-3.924
						c-3.556-0.738-7.413-1.627-10.815-3.26c0.305,6.27,1.194,13.089,1.194,13.089c17.998,8.399,41.995,6.599,41.995,6.599
						s2.134-4.878,4.377-11.373C584.343,293.799,580.319,293.434,576.305,292.931z"/>
				</g>
			</g>
			<g>
				<g>
					<g>
						<polygon style="fill:#CC5E44;" points="359.581,440.084 335.139,446.54 322.688,333.557 367.882,333.557 370.187,341.858 
							425.526,341.858 431.06,436.395 						"/>
						<polygon style="fill:#FFFFFF;" points="339.29,442.389 336.523,346.008 461.035,345.547 435.21,439.623 						"/>
						<polygon style="opacity:0.3;fill:#7A8DB5;" points="339.29,442.389 336.523,346.008 461.035,345.547 435.21,439.623 						"/>
						<polygon style="fill:#FFFFFF;" points="348.052,440.084 345.285,348.775 469.797,348.314 443.972,442.389 						"/>
						<polygon style="opacity:0.1;fill:#7A8DB5;" points="348.052,440.084 345.285,348.775 469.797,348.314 443.972,442.389 						
							"/>
					</g>
					<g>
						<polygon style="fill:#FFFFFF;" points="391.123,391.658 388.356,300.35 512.867,299.888 508.717,394.425 						"/>
						<polygon style="opacity:0.1;fill:#7A8DB5;" points="389.773,353.25 391.123,391.658 508.717,394.425 511.38,333.773 						"/>
					</g>
					<g>
						<polygon style="fill:#FFFFFF;" points="347.546,325.256 344.779,233.948 469.291,233.486 465.14,328.023 						"/>
						<polygon style="opacity:0.1;fill:#7A8DB5;" points="347.031,308.27 347.546,325.256 465.14,328.023 469.151,236.672 						"/>
					</g>
					<polygon style="fill:#DE7356;" points="335.139,446.54 457.806,446.54 494.238,347.392 453.656,347.392 449.967,354.309 
						366.498,354.309 					"/>
				</g>
				<g>
					<path style="fill:#FFC1B7;" d="M565.335,278.937l-23.306,25.385c0,0-30.483,3.319-37.38,4.107
						c-0.611,0.07-1.125,0.132-1.574,0.188c-7.907-6.138-4.561-1.654-2.75,0.566c-22.599,5.137-3.459,2.989-3.459,2.989
						c-20.295,7.163,1.29,1.998,1.29,1.998c-15.818,11.64,1.492,1.791,1.492,1.791c-11.747,11.58,2.388,0.895,2.388,0.895
						s41.188,4.178,49.544,0.597c8.357-3.582,25.668-22.086,25.668-22.086C570.383,291.19,565.335,278.937,565.335,278.937z"/>
					<path style="fill:#FFA398;" d="M574.879,297.837c1.473-1.512,2.369-2.469,2.369-2.469
						c-6.865-4.178-11.912-16.431-11.912-16.431l-6.702,7.3C563.978,290.209,569.365,294.117,574.879,297.837z"/>
					<path style="fill:#88D2D0;" d="M559.586,282.695l18.237,13.181c0,0,6.139-6.32,10.473-12.82
						c4.333-6.5-18.056-13.542-18.056-13.542L559.586,282.695z"/>
				</g>
			</g>
		</g>
	</g>
	<g>
		<g>
			<ellipse style="opacity:0.1;fill:#2F3F5C;" cx="199.965" cy="449.532" rx="71.764" ry="9.715"/>
		</g>
		<g>
			<g>
				<g>
					<path style="fill:#DE7356;" d="M168.046,128.749l-2.771,20.211l-14.176,1.31c0,0,16.462,12.224,30.643,14.343
						c14.18,2.119,20.211-8.313,20.211-8.313l-16.8-3.878l2.608-19.396L168.046,128.749z"/>
					<path style="opacity:0.3;fill:#BC4D33;" d="M168.046,128.749l-2.771,20.211l-14.176,1.31c0,0,16.462,12.224,30.643,14.343
						c14.18,2.119,20.211-8.313,20.211-8.313l-16.8-3.878l2.608-19.396L168.046,128.749z"/>
				</g>
				<g>
					<path style="fill:#DE7356;" d="M164.435,105.255c0,0-3.276-7.488-8.424-0.468c-5.148,7.02,3.744,16.537,8.112,18.721
						C168.491,125.692,164.435,105.255,164.435,105.255z"/>
					<path style="fill:#DE7356;" d="M215.023,98.247c0,0-3.226,39.682-15.486,46.78c-12.26,7.098-37.436,0.986-35.811-29.358
						c1.936-36.133,20.648-39.682,28.068-39.682S215.991,85.665,215.023,98.247z"/>
					<path style="fill:#2F3F5C;" d="M186.588,87.314c0,0,1.404,12.949,18.409,18.253l-4.992-6.24c0,0,8.893,7.02,16.537,9.516
						l-1.248-6.084l2.808,4.056c0,0,1.248-4.992-0.156-11.076l4.524,8.58c0,0,2.496-19.345-17.317-28.081s-27.145,2.34-27.145,2.34
						l4.212-0.468c0,0-9.36-8.736-17.161,2.34c-4.544,6.452-5.298,14.877-4.056,21.217c3.12,2.184,3.432,8.268,3.432,8.268
						l-0.312,9.048l4.368,0.936l1.248-16.693c0,0,9.672-5.772,9.36-16.069c0,0,0.468,11.857,18.721,18.721L186.588,87.314z"/>
				</g>
			</g>
			<g>
				<g>
					<path style="fill:#2F3F5C;" d="M177.025,115.253c0,0-0.004-0.325,0.048-0.892c0.054-0.566,0.166-1.375,0.434-2.326
						c0.133-0.475,0.293-0.991,0.534-1.515c0.227-0.529,0.514-1.08,0.912-1.606c0.182-0.271,0.445-0.508,0.674-0.767
						c0.286-0.216,0.548-0.478,0.902-0.63l0.528-0.234c0.18-0.069,0.381-0.085,0.573-0.125c0.391-0.104,0.777-0.034,1.166-0.008
						l0.145,0.016l0.036,0.004l0.091,0.024l0.014,0.005l0.057,0.019l0.227,0.078l0.453,0.155c0.344,0.206,0.763,0.398,1.013,0.665
						l0.4,0.389c0.124,0.135,0.21,0.293,0.314,0.438c0.217,0.288,0.346,0.603,0.488,0.906c0.269,0.609,0.39,1.224,0.485,1.796
						c0.079,0.574,0.101,1.116,0.095,1.611c-0.012,0.991-0.15,1.799-0.266,2.356c-0.119,0.558-0.224,0.866-0.224,0.866
						s-0.013-0.326-0.055-0.885c-0.042-0.559-0.111-1.354-0.26-2.278c-0.081-0.462-0.191-0.951-0.318-1.458
						c-0.152-0.498-0.334-1.009-0.579-1.485c-0.246-0.475-0.572-0.906-0.964-1.226c-0.186-0.194-0.386-0.232-0.564-0.384
						l-0.457-0.143l-0.229-0.072l-0.057-0.018l-0.014-0.005l-0.007-0.002c0.148,0.04,0.038,0.011,0.069,0.02l-0.024-0.001
						l-0.094-0.005c-0.247-0.013-0.502-0.088-0.737-0.015c-0.118,0.025-0.243,0.019-0.358,0.062l-0.341,0.144
						c-0.231,0.086-0.43,0.274-0.652,0.401c-0.188,0.193-0.406,0.346-0.574,0.563c-0.35,0.413-0.676,0.852-0.941,1.306
						c-0.27,0.449-0.505,0.898-0.711,1.32c-0.406,0.847-0.711,1.586-0.915,2.108C177.14,114.952,177.025,115.253,177.025,115.253z"
						/>
				</g>
				<g>
					<path style="fill:#2F3F5C;" d="M198.71,119.777c0,0-0.004-0.325,0.048-0.892c0.054-0.566,0.166-1.375,0.434-2.326
						c0.133-0.475,0.293-0.991,0.534-1.515c0.227-0.529,0.514-1.08,0.912-1.606c0.182-0.271,0.445-0.508,0.674-0.767
						c0.286-0.216,0.548-0.478,0.902-0.63l0.528-0.234c0.18-0.069,0.381-0.085,0.573-0.125c0.391-0.104,0.777-0.034,1.166-0.008
						l0.145,0.016l0.036,0.004l0.091,0.024l0.014,0.005l0.057,0.019l0.227,0.078l0.453,0.155c0.344,0.206,0.763,0.398,1.013,0.665
						l0.4,0.389c0.123,0.135,0.21,0.293,0.314,0.438c0.217,0.288,0.346,0.603,0.488,0.906c0.269,0.609,0.39,1.224,0.486,1.796
						c0.079,0.574,0.101,1.116,0.095,1.611c-0.012,0.991-0.15,1.799-0.266,2.356c-0.119,0.558-0.224,0.866-0.224,0.866
						s-0.013-0.326-0.055-0.885c-0.042-0.559-0.111-1.354-0.26-2.278c-0.081-0.462-0.191-0.951-0.318-1.458
						c-0.152-0.498-0.334-1.009-0.579-1.485c-0.246-0.475-0.572-0.906-0.963-1.226c-0.186-0.194-0.386-0.232-0.564-0.384
						l-0.457-0.143l-0.229-0.072l-0.057-0.018l-0.014-0.004l-0.007-0.002c0.148,0.04,0.038,0.011,0.069,0.02l-0.024-0.001
						l-0.094-0.005c-0.247-0.013-0.502-0.088-0.737-0.015c-0.118,0.025-0.243,0.019-0.358,0.062l-0.341,0.145
						c-0.231,0.086-0.43,0.274-0.652,0.401c-0.188,0.193-0.406,0.346-0.574,0.563c-0.35,0.413-0.676,0.852-0.94,1.306
						c-0.27,0.449-0.505,0.898-0.711,1.32c-0.406,0.847-0.711,1.586-0.915,2.108C198.825,119.476,198.71,119.777,198.71,119.777z"/>
				</g>
				<g>
					<path style="fill:#BC4D33;" d="M197.665,110.715c0.398,1.54,0.662,3.09,0.906,4.641c0.101,0.777,0.225,1.552,0.306,2.33
						c0.079,0.778,0.183,1.555,0.241,2.334c0.142,1.558,0.235,3.118,0.307,4.68c0.053,1.563,0.081,3.129,0.046,4.698l-0.011,0.498
						l-0.384,0.075c-1.234,0.24-2.477,0.449-3.751,0.557c1.118-0.62,2.267-1.139,3.425-1.627l-0.395,0.572
						c-0.243-1.551-0.423-3.106-0.578-4.662c-0.136-1.558-0.251-3.117-0.317-4.68c-0.046-0.78-0.046-1.564-0.071-2.346
						c-0.023-0.782-0.002-1.567-0.006-2.35C197.419,113.866,197.475,112.295,197.665,110.715z"/>
				</g>
				<path style="fill:#FFFFFF;" d="M178.008,129.436l22.621,4.68C200.629,134.116,188.148,140.825,178.008,129.436z"/>
				<g>
					<path style="fill:#2F3F5C;" d="M175.136,104.444c0,0,0.152-0.25,0.49-0.618c0.33-0.378,0.853-0.855,1.543-1.361
						c0.703-0.474,1.573-0.986,2.607-1.327c0.506-0.199,1.065-0.317,1.634-0.43c0.571-0.107,1.174-0.132,1.773-0.151
						c0.605,0.062,1.213,0.038,1.799,0.223c0.591,0.126,1.157,0.302,1.669,0.577c0.257,0.13,0.516,0.238,0.749,0.38
						c0.22,0.164,0.435,0.325,0.644,0.481c0.2,0.161,0.394,0.318,0.582,0.47c0.165,0.178,0.315,0.357,0.456,0.528
						c0.276,0.349,0.535,0.652,0.702,0.964c0.169,0.312,0.289,0.6,0.389,0.828c0.197,0.461,0.273,0.731,0.273,0.731
						s-0.276-0.128-0.695-0.365c-0.208-0.12-0.462-0.257-0.722-0.431c-0.272-0.162-0.624-0.277-0.952-0.448
						c-0.164-0.081-0.335-0.166-0.512-0.254c-0.185-0.062-0.377-0.125-0.574-0.191c-0.188-0.07-0.38-0.143-0.577-0.216
						c-0.204-0.046-0.412-0.093-0.624-0.141c-0.212-0.039-0.411-0.12-0.629-0.15c-0.221-0.02-0.441-0.047-0.66-0.082
						c-0.432-0.094-0.903-0.053-1.355-0.097c-0.462,0.005-0.928,0.012-1.393,0.042c-0.465,0.052-0.931,0.066-1.386,0.144
						c-0.457,0.048-0.901,0.126-1.331,0.193c-0.432,0.06-0.837,0.153-1.226,0.21C176.205,104.247,175.136,104.444,175.136,104.444z"
						/>
				</g>
				<g>
					<path style="fill:#2F3F5C;" d="M199.693,108.687c0,0,0.127-0.237,0.424-0.587c0.29-0.357,0.751-0.819,1.382-1.284
						c0.323-0.217,0.669-0.476,1.077-0.675c0.404-0.208,0.841-0.415,1.327-0.56c0.472-0.181,1.003-0.265,1.537-0.356
						c0.544-0.051,1.11-0.083,1.677-0.024c0.568,0.082,1.139,0.154,1.669,0.385c0.55,0.16,1.031,0.453,1.477,0.755
						c0.472,0.263,0.803,0.669,1.139,1.005c0.352,0.327,0.559,0.73,0.763,1.079c0.198,0.352,0.398,0.655,0.473,0.978
						c0.104,0.305,0.167,0.583,0.222,0.804c0.106,0.445,0.131,0.704,0.131,0.704s-0.238-0.147-0.593-0.411
						c-0.176-0.133-0.392-0.287-0.609-0.475c-0.206-0.201-0.526-0.334-0.792-0.537c-0.286-0.185-0.568-0.404-0.912-0.545
						c-0.333-0.153-0.635-0.376-1.006-0.471c-0.18-0.058-0.352-0.131-0.527-0.203c-0.176-0.066-0.374-0.081-0.556-0.136
						c-0.363-0.115-0.757-0.148-1.147-0.197c-0.39-0.058-0.8-0.036-1.202-0.057c-0.408,0.035-0.816,0.014-1.22,0.075
						c-0.405,0.027-0.803,0.085-1.189,0.139c-0.386,0.047-0.756,0.117-1.108,0.162c-0.338,0.082-0.676,0.112-0.964,0.174
						c-0.298,0.054-0.557,0.1-0.771,0.139C199.948,108.644,199.693,108.687,199.693,108.687z"/>
				</g>
			</g>
		</g>
		<g>
			<g>
				<g>
					<g>
						<path style="fill:#DE7356;" d="M179.483,412.138c0,0,1.71,32.006-0.733,34.938c-2.443,2.932-58.392,17.347-11.483-7.085
							l-4.642-41.29l14.659,17.591"/>
						<g>
							<path style="fill:#2F3F5C;" d="M148.649,452.414c-1.407,4.905,28.334-3.218,30.101-5.338
								c0.243-0.291,0.443-0.879,0.609-1.684C174.977,447.782,155.074,453.234,148.649,452.414z"/>
						</g>
						<path style="fill:#2F3F5C;" d="M154.318,446.649l2.932-1.71l7.024,5.558l-4.276,1.832c0,0-2.871-5.558-8.185,0.244
							L154.318,446.649z"/>
					</g>
					<path style="opacity:0.2;fill:#182333;" d="M180.054,434.723c0.096-10.09-0.571-22.585-0.571-22.585l-2.199,4.153
						l-14.659-17.591l4.1,36.469C171.167,435.004,175.61,434.848,180.054,434.723z"/>
				</g>
				<g>
					<g>
						<path style="fill:#DE7356;" d="M209.971,412.138c0,0-1.71,32.006,0.733,34.938c2.443,2.932,59.619,16.784,12.71-7.648
							l-1.151-49.514l-10.092,26.378"/>
						<g>
							<path style="fill:#2F3F5C;" d="M240.806,452.414c1.407,4.905-28.335-3.218-30.101-5.338
								c-0.243-0.291-0.443-0.879-0.609-1.684C214.477,447.782,234.381,453.234,240.806,452.414z"/>
						</g>
						<path style="fill:#2F3F5C;" d="M236.311,446.107l-2.932-1.71l-8.199,6.1l4.276,1.832c0,0,2.871-5.558,8.185,0.244
							L236.311,446.107z"/>
					</g>
					<path style="opacity:0.2;fill:#182333;" d="M223.298,434.435l-1.035-44.52l-10.092,26.377l-2.199-4.153
						c0,0-0.856,16.039-0.488,26.446C214.147,437.383,218.78,436.075,223.298,434.435z"/>
				</g>
			</g>
			<g>
				<polygon style="fill:#88D2D0;" points="144.743,271.211 164.302,430.619 181.554,430.492 177.954,287.407 186.053,287.857 
					208.551,428.692 226.402,427.196 215.9,256.661 				"/>
				<path style="opacity:0.2;fill:#182333;" d="M214.833,270.12l-1.144-15.534l-68.946,16.625l1.067,8.697
					C168.884,277.079,191.974,274.369,214.833,270.12z"/>
				<polygon style="fill:#C1EEE6;" points="160.393,423.777 182.534,423.26 183.364,431.357 163.24,433.218 				"/>
				<polygon style="fill:#C1EEE6;" points="227.137,422.005 206.503,425.168 207.453,433.251 227.562,431.359 				"/>
			</g>
		</g>
		<g>
			<g>
				<path style="fill:#DE7356;" d="M221.934,181.601l18.057,23.13c0,0,42.975-28.325,45.691-27.985
					c2.716,0.339-40.201,55.061-47.491,57.02c-7.291,1.959-40.185-42.63-40.185-42.63L221.934,181.601z"/>
				<path style="opacity:0.3;fill:#BC4D33;" d="M227.501,188.731l-5.567-7.131l-23.928,9.534c0,0,4.125,5.59,9.774,12.723
					C214.367,198.836,221.607,194.6,227.501,188.731z"/>
				<path style="opacity:0.3;fill:#BC4D33;" d="M254.753,217.719c14.607-16.8,32.722-40.75,30.928-40.974
					c-1.902-0.238-23.559,13.589-36.361,21.894C251.295,204.956,253.262,211.275,254.753,217.719z"/>
			</g>
			<g>
				<path style="fill:#7A8DB5;" d="M161.857,148.964c0,0-20.048-1.914-24.938,11.486c-4.89,13.4,1.467,88.535,5.868,111.507
					c0,0,42.541,4.307,76.77-4.786c0,0-6.846-68.914-5.868-81.357c0.978-12.443,4.401-29.193-15.158-31.586
					c0,0-6.846,11.964-20.537,9.093C164.302,160.45,161.857,148.964,161.857,148.964z"/>
				<path style="opacity:0.2;fill:#2F3F5C;" d="M135.642,199.687c1.228,26.582,4.531,58.627,7.145,72.27
					c0,0,42.541,4.307,76.77-4.786c0,0-2.989-30.09-4.735-54.095C187.628,211.561,160.695,207.885,135.642,199.687z"/>
				<path style="fill:#7A8DB5;" d="M198.53,154.229c0,0,14.47-1.985,25.769,23.841c3.15,7.199,3.15,7.199,3.15,7.199l-19.798,12.599
					L198.53,154.229z"/>
			</g>
			<g>
				<g>

					<circle style="fill:#4B6590;" cx="303.427" cy="153.088" r="54.047"/>
					
						<ellipse transform="matrix(0.9767 -0.2146 0.2146 0.9767 -25.7865 68.6941)" style="fill:#88D2D0;" cx="303.427" cy="153.088" rx="43.186" ry="43.186"/>
					<path style="fill:#FFC330;" d="M194.199,295.15c-2.17,3.332-1.229,7.792,2.103,9.962l7.163,4.666
						c3.332,2.17,7.792,1.229,9.962-2.103l50.591-77.666c2.17-3.332,1.229-7.792-2.103-9.962l-7.163-4.666
						c-3.332-2.17-7.792-1.229-9.962,2.103L194.199,295.15z"/>
					<path style="opacity:0.2;fill:#2F3F5C;" d="M254.751,215.381l3.016,1.965c-3.331-2.17-7.791-1.229-9.962,2.103l-50.591,77.666
						c-2.17,3.332-1.229,7.792,2.103,9.962l-3.016-1.965c-3.331-2.17-4.273-6.63-2.103-9.962l50.591-77.666
						C246.96,214.153,251.419,213.211,254.751,215.381z"/>
					<g>
						<path style="opacity:0.2;fill:#FFFFFF;" d="M341.686,133.063l-80.946,26.529c-0.606-3.969-0.67-8.026-0.151-12.052
							l76.493-21.516C338.857,128.232,340.395,130.59,341.686,133.063z"/>
						<path style="opacity:0.2;fill:#FFFFFF;" d="M345.801,144.809c0.449,2.296,0.712,4.628,0.785,6.974l-76.975,28.166
							c-2.474-3.114-4.487-6.52-5.996-10.118L345.801,144.809z"/>
					</g>
				</g>
				<g>
					<path style="fill:#DE7356;" d="M143.308,196.517l26.547-6.749c0,0,2.7,22.048,6.299,40.046
						c5.849,6.299,27.275,40.792,29.697,44.095c0,0,22.497,0,3.6,2.7c0,0,26.097,22.048-1.8,3.6c0,0,29.247,24.747-1.8,2.7
						c0,0,25.197,22.498-2.25,2.7c0,0,15.748,19.348-2.25,1.8c-10.11-9.857-34.374-30.611-44.995-48.145
						C148.069,225.581,147.844,206.575,143.308,196.517z"/>
					<path style="opacity:0.3;fill:#BC4D33;" d="M170.9,194.464c-0.648-2.923-1.045-4.696-1.045-4.696l-26.547,6.749
						c0.808,1.791,1.578,3.999,2.347,6.488C153.943,199.773,162.304,196.763,170.9,194.464z"/>
				</g>
			</g>
		</g>
	</g>
</g>
</svg>
