<svg width="1440" height="1024" viewBox="0 0 1440 1024" fill="none" xmlns="http://www.w3.org/2000/svg">
<g clip-path="url(#clip0_8_1462)">
<rect width="1440" height="1024" fill="#F4F4F4"/>
<path d="M1490 757.5C1490 928.432 1351.43 1067 1180.5 1067C1009.57 1067 1115.5 942.932 1115.5 772C1115.5 601.068 1009.57 448 1180.5 448C1351.43 448 1490 586.568 1490 757.5Z" fill="#106035" fill-opacity="0.45"/>
<path d="M1420.11 790.898C1408.01 823.312 1383.28 858.394 1348.49 868.78C1295.91 884.479 1289.63 926.859 1195.46 922.928C1180.78 922.317 1167.21 920.252 1154.74 916.957C1148.04 915.186 1141.65 913.05 1135.6 910.588C1080.58 888.306 1051.89 839.265 1049.5 787.952C1046.36 720.464 1093.45 688.296 1124.05 669.46C1154.65 650.625 1191.54 577.642 1284.14 580.778C1298.26 581.262 1312.35 583.192 1326 586.892C1357.16 595.325 1388.83 613.978 1407.24 641.246C1408.62 643.294 1409.94 645.391 1411.2 647.527C1435.83 689.32 1436.61 746.708 1420.11 790.898Z" fill="#92E3A9"/>
<path opacity="0.7" d="M1420.11 790.898C1408.01 823.312 1383.28 858.394 1348.49 868.78C1295.91 884.479 1289.63 926.859 1195.46 922.928C1180.78 922.317 1167.21 920.252 1154.74 916.957C1148.04 915.186 1141.65 913.05 1135.6 910.588C1080.58 888.306 1051.89 839.265 1049.5 787.952C1046.36 720.464 1093.45 688.296 1124.05 669.46C1154.65 650.625 1191.54 577.642 1284.14 580.778C1298.26 581.262 1312.35 583.192 1326 586.892C1357.16 595.325 1388.83 613.978 1407.24 641.246C1408.62 643.294 1409.94 645.391 1411.2 647.527C1435.83 689.32 1436.61 746.708 1420.11 790.898Z" fill="white"/>
<g opacity="0.2">
<path d="M1203.62 580.524H1112.8V836.051H1203.62V580.524Z" stroke="black" stroke-miterlimit="10" stroke-linecap="round"/>
<path d="M1113.29 588.293H1203.43L1201.32 581.268" stroke="black" stroke-miterlimit="10" stroke-linecap="round"/>
<path d="M1113.29 596.8H1203.43L1201.32 589.776" stroke="black" stroke-miterlimit="10" stroke-linecap="round"/>
<path d="M1113.29 605.307H1203.43L1201.32 598.282" stroke="black" stroke-miterlimit="10" stroke-linecap="round"/>
<path d="M1113.29 613.815H1203.43L1201.32 606.79" stroke="black" stroke-miterlimit="10" stroke-linecap="round"/>
<path d="M1113.29 622.322H1203.43L1201.32 615.297" stroke="black" stroke-miterlimit="10" stroke-linecap="round"/>
<path d="M1113.29 630.83H1203.43L1201.32 623.805" stroke="black" stroke-miterlimit="10" stroke-linecap="round"/>
<path d="M1113.29 639.336H1203.43L1201.32 632.312" stroke="black" stroke-miterlimit="10" stroke-linecap="round"/>
<path d="M1113.29 647.844H1203.43L1201.32 640.819" stroke="black" stroke-miterlimit="10" stroke-linecap="round"/>
<path d="M1113.29 656.351H1203.43L1201.32 649.326" stroke="black" stroke-miterlimit="10" stroke-linecap="round"/>
<path d="M1113.29 664.859H1203.43L1201.32 657.834" stroke="black" stroke-miterlimit="10" stroke-linecap="round"/>
<path d="M1113.29 673.366H1203.43L1201.32 666.341" stroke="black" stroke-miterlimit="10" stroke-linecap="round"/>
<path d="M1113.29 681.873H1203.43L1201.32 674.849" stroke="black" stroke-miterlimit="10" stroke-linecap="round"/>
<path d="M1113.29 690.38H1203.43L1201.32 683.355" stroke="black" stroke-miterlimit="10" stroke-linecap="round"/>
<path d="M1113.29 698.888H1203.43L1201.32 691.863" stroke="black" stroke-miterlimit="10" stroke-linecap="round"/>
<path d="M1113.29 707.395H1203.43L1201.32 700.37" stroke="black" stroke-miterlimit="10" stroke-linecap="round"/>
<path d="M1113.29 715.902H1203.43L1201.32 708.878" stroke="black" stroke-miterlimit="10" stroke-linecap="round"/>
<path d="M1113.29 724.409H1203.43L1201.32 717.385" stroke="black" stroke-miterlimit="10" stroke-linecap="round"/>
<path d="M1113.29 732.917H1203.43L1201.32 725.892" stroke="black" stroke-miterlimit="10" stroke-linecap="round"/>
<path d="M1113.29 741.424H1203.43L1201.32 734.399" stroke="black" stroke-miterlimit="10" stroke-linecap="round"/>
<path d="M1113.29 749.932H1203.43L1201.32 742.907" stroke="black" stroke-miterlimit="10" stroke-linecap="round"/>
<path d="M1113.29 758.439H1203.43L1201.32 751.414" stroke="black" stroke-miterlimit="10" stroke-linecap="round"/>
<path d="M1113.29 766.946H1203.43L1201.32 759.921" stroke="black" stroke-miterlimit="10" stroke-linecap="round"/>
<path d="M1113.29 775.453H1203.43L1201.32 768.428" stroke="black" stroke-miterlimit="10" stroke-linecap="round"/>
<path d="M1113.29 783.961H1203.43L1201.32 776.936" stroke="black" stroke-miterlimit="10" stroke-linecap="round"/>
<path d="M1113.29 792.468H1203.43L1201.32 785.443" stroke="black" stroke-miterlimit="10" stroke-linecap="round"/>
<path d="M1113.29 800.975H1203.43L1201.32 793.951" stroke="black" stroke-miterlimit="10" stroke-linecap="round"/>
<path d="M1113.29 809.482H1203.43L1201.32 802.457" stroke="black" stroke-miterlimit="10" stroke-linecap="round"/>
<path d="M1113.29 817.99H1203.43L1201.32 810.965" stroke="black" stroke-miterlimit="10" stroke-linecap="round"/>
<path d="M1113.29 826.497H1203.43L1201.32 819.472" stroke="black" stroke-miterlimit="10" stroke-linecap="round"/>
</g>
<g opacity="0.2">
<path d="M1301.27 580.524H1210.46V836.051H1301.27V580.524Z" stroke="black" stroke-miterlimit="10" stroke-linecap="round"/>
<path d="M1210.94 588.293H1301.09L1298.97 581.268" stroke="black" stroke-miterlimit="10" stroke-linecap="round"/>
<path d="M1210.94 596.8H1301.09L1298.97 589.776" stroke="black" stroke-miterlimit="10" stroke-linecap="round"/>
<path d="M1210.94 605.307H1301.09L1298.97 598.282" stroke="black" stroke-miterlimit="10" stroke-linecap="round"/>
<path d="M1210.94 613.815H1301.09L1298.97 606.79" stroke="black" stroke-miterlimit="10" stroke-linecap="round"/>
<path d="M1210.94 622.322H1301.09L1298.97 615.297" stroke="black" stroke-miterlimit="10" stroke-linecap="round"/>
<path d="M1210.94 630.83H1301.09L1298.97 623.805" stroke="black" stroke-miterlimit="10" stroke-linecap="round"/>
<path d="M1210.94 639.336H1301.09L1298.97 632.312" stroke="black" stroke-miterlimit="10" stroke-linecap="round"/>
<path d="M1210.94 647.844H1301.09L1298.97 640.819" stroke="black" stroke-miterlimit="10" stroke-linecap="round"/>
<path d="M1210.94 656.351H1301.09L1298.97 649.326" stroke="black" stroke-miterlimit="10" stroke-linecap="round"/>
<path d="M1210.94 664.859H1301.09L1298.97 657.834" stroke="black" stroke-miterlimit="10" stroke-linecap="round"/>
<path d="M1210.94 673.366H1301.09L1298.97 666.341" stroke="black" stroke-miterlimit="10" stroke-linecap="round"/>
<path d="M1210.94 681.873H1301.09L1298.97 674.849" stroke="black" stroke-miterlimit="10" stroke-linecap="round"/>
<path d="M1210.94 690.38H1301.09L1298.97 683.355" stroke="black" stroke-miterlimit="10" stroke-linecap="round"/>
<path d="M1210.94 698.888H1301.09L1298.97 691.863" stroke="black" stroke-miterlimit="10" stroke-linecap="round"/>
<path d="M1210.94 707.395H1301.09L1298.97 700.37" stroke="black" stroke-miterlimit="10" stroke-linecap="round"/>
<path d="M1210.94 715.902H1301.09L1298.97 708.878" stroke="black" stroke-miterlimit="10" stroke-linecap="round"/>
<path d="M1210.94 724.409H1301.09L1298.97 717.385" stroke="black" stroke-miterlimit="10" stroke-linecap="round"/>
<path d="M1210.94 732.917H1301.09L1298.97 725.892" stroke="black" stroke-miterlimit="10" stroke-linecap="round"/>
<path d="M1210.94 741.424H1301.09L1298.97 734.399" stroke="black" stroke-miterlimit="10" stroke-linecap="round"/>
<path d="M1210.94 749.932H1301.09L1298.97 742.907" stroke="black" stroke-miterlimit="10" stroke-linecap="round"/>
<path d="M1210.94 758.439H1301.09L1298.97 751.414" stroke="black" stroke-miterlimit="10" stroke-linecap="round"/>
<path d="M1210.94 766.946H1301.09L1298.97 759.921" stroke="black" stroke-miterlimit="10" stroke-linecap="round"/>
<path d="M1210.94 775.453H1301.09L1298.97 768.428" stroke="black" stroke-miterlimit="10" stroke-linecap="round"/>
<path d="M1210.94 783.961H1301.09L1298.97 776.936" stroke="black" stroke-miterlimit="10" stroke-linecap="round"/>
<path d="M1210.94 792.468H1301.09L1298.97 785.443" stroke="black" stroke-miterlimit="10" stroke-linecap="round"/>
<path d="M1210.94 800.975H1301.09L1298.97 793.951" stroke="black" stroke-miterlimit="10" stroke-linecap="round"/>
<path d="M1210.94 809.482H1301.09L1298.97 802.457" stroke="black" stroke-miterlimit="10" stroke-linecap="round"/>
<path d="M1210.94 817.99H1301.09L1298.97 810.965" stroke="black" stroke-miterlimit="10" stroke-linecap="round"/>
<path d="M1210.94 826.497H1301.09L1298.97 819.472" stroke="black" stroke-miterlimit="10" stroke-linecap="round"/>
</g>
<g opacity="0.3">
<path d="M1072.25 596.69H1057.45V611.486H1072.25V596.69Z" stroke="black" stroke-miterlimit="10" stroke-linecap="round"/>
<path d="M1072.25 621.898H1057.45V636.694H1072.25V621.898Z" stroke="black" stroke-miterlimit="10" stroke-linecap="round"/>
<path d="M1077.73 604.362H1100.2" stroke="black" stroke-miterlimit="10" stroke-linecap="round"/>
<path d="M1077.73 629.022H1100.2" stroke="black" stroke-miterlimit="10" stroke-linecap="round"/>
<path d="M1060.74 601.074L1062.93 605.458L1072.8 590.662" stroke="black" stroke-miterlimit="10" stroke-linecap="round"/>
</g>
<g opacity="0.3">
<path d="M1290.9 891.788H1276.11V906.584H1290.9V891.788Z" stroke="black" stroke-miterlimit="10" stroke-linecap="round"/>
<path d="M1290.9 916.996H1276.11V931.792H1290.9V916.996Z" stroke="black" stroke-miterlimit="10" stroke-linecap="round"/>
<path d="M1296.38 899.46H1318.85" stroke="black" stroke-miterlimit="10" stroke-linecap="round"/>
<path d="M1296.38 924.12H1318.85" stroke="black" stroke-miterlimit="10" stroke-linecap="round"/>
<path d="M1279.39 896.172L1281.59 900.556L1291.45 885.76" stroke="black" stroke-miterlimit="10" stroke-linecap="round"/>
</g>
<g opacity="0.3">
<path d="M1340.5 588.744H1325.7V603.54H1340.5V588.744Z" stroke="black" stroke-miterlimit="10" stroke-linecap="round"/>
<path d="M1340.5 613.952H1325.7V628.748H1340.5V613.952Z" stroke="black" stroke-miterlimit="10" stroke-linecap="round"/>
<path d="M1345.98 596.416H1368.44" stroke="black" stroke-miterlimit="10" stroke-linecap="round"/>
<path d="M1345.98 621.076H1368.44" stroke="black" stroke-miterlimit="10" stroke-linecap="round"/>
<path d="M1328.99 593.128L1331.18 597.512L1341.04 582.716" stroke="black" stroke-miterlimit="10" stroke-linecap="round"/>
</g>
<path d="M1424.77 914.961H1437" stroke="#263238" stroke-miterlimit="10" stroke-linecap="round" stroke-linejoin="round"/>
<path d="M1058.55 914.961H1419.07" stroke="#263238" stroke-miterlimit="10" stroke-linecap="round" stroke-linejoin="round"/>
<path d="M1103.36 859.795C1108.65 859.795 1112.93 848.553 1112.93 834.684C1112.93 820.815 1108.65 809.573 1103.36 809.573C1098.07 809.573 1093.78 820.815 1093.78 834.684C1093.78 848.553 1098.07 859.795 1103.36 859.795Z" fill="#92E3A9" stroke="#263238" stroke-miterlimit="10"/>
<path d="M1133.1 819.197C1130.11 828.617 1124.36 835.198 1120.26 833.895C1116.16 832.592 1115.27 823.9 1118.26 814.481C1121.25 805.061 1127 798.481 1131.1 799.783C1135.2 801.086 1136.1 809.778 1133.1 819.197Z" fill="#92E3A9" stroke="#263238" stroke-miterlimit="10"/>
<path d="M1062.86 875.998C1053.11 874.347 1045.79 869.57 1046.51 865.329C1047.23 861.087 1055.71 858.988 1065.46 860.639C1075.2 862.289 1082.52 867.066 1081.8 871.307C1081.08 875.548 1072.6 877.648 1062.86 875.998Z" fill="#92E3A9" stroke="#263238" stroke-miterlimit="10"/>
<path d="M1142.12 852.782C1133.98 860.854 1124.36 864.354 1120.64 860.6C1116.92 856.846 1120.5 847.259 1128.63 839.187C1136.77 831.115 1146.39 827.615 1150.11 831.369C1153.84 835.123 1150.26 844.71 1142.12 852.782Z" fill="#92E3A9" stroke="#263238" stroke-miterlimit="10"/>
<path d="M1086.03 830.641C1093.9 842.06 1096.25 854.098 1091.27 857.529C1086.29 860.96 1075.88 854.484 1068.01 843.065C1060.14 831.646 1057.79 819.608 1062.77 816.177C1067.75 812.746 1078.16 819.222 1086.03 830.641Z" fill="#92E3A9" stroke="#263238" stroke-miterlimit="10"/>
<path d="M1104.03 858.542L1104.77 893.068" stroke="#263238" stroke-miterlimit="10" stroke-linecap="round"/>
<path d="M1103.14 825.347L1104.03 858.542" stroke="#263238" stroke-miterlimit="10" stroke-linecap="round"/>
<path d="M1103.2 819.931L1103.14 822.474" stroke="#263238" stroke-miterlimit="10" stroke-linecap="round"/>
<path d="M1091.23 855.898C1096.03 865.977 1099.94 878.219 1100.69 892.127" stroke="#263238" stroke-miterlimit="10" stroke-linecap="round"/>
<path d="M1074.79 830.738C1079.25 835.891 1085.81 844.515 1091.23 855.898" stroke="#263238" stroke-miterlimit="10" stroke-linecap="round"/>
<path d="M1069.61 825.267C1069.61 825.267 1070.61 826.174 1072.24 827.908" stroke="#263238" stroke-miterlimit="10" stroke-linecap="round"/>
<path d="M1121.23 859.443C1115.65 867.163 1110.04 877.267 1105.71 890.244" stroke="#263238" stroke-miterlimit="10" stroke-linecap="round"/>
<path d="M1132.25 846.786C1128.87 849.993 1125.06 854.159 1121.23 859.443" stroke="#263238" stroke-miterlimit="10" stroke-linecap="round"/>
<path d="M1144.01 837.823C1144.01 837.823 1140.59 839.573 1135.62 843.765" stroke="#263238" stroke-miterlimit="10" stroke-linecap="round"/>
<path d="M1120.83 831.561C1115.53 848.252 1108.41 872.916 1105.08 894.324" stroke="#263238" stroke-miterlimit="10" stroke-linecap="round"/>
<path d="M1124.06 821.66C1123.12 824.475 1122.02 827.817 1120.83 831.561" stroke="#263238" stroke-miterlimit="10" stroke-linecap="round"/>
<path d="M1127.37 812.084C1127.37 812.084 1126.44 814.639 1124.95 819.022" stroke="#263238" stroke-miterlimit="10" stroke-linecap="round"/>
<path d="M1081.31 868.994C1087.94 871.507 1094.41 876.354 1097.55 885.535" stroke="#263238" stroke-miterlimit="10" stroke-linecap="round"/>
<path d="M1069.07 866.505C1072.64 866.715 1077.01 867.362 1081.31 868.994" stroke="#263238" stroke-miterlimit="10" stroke-linecap="round"/>
<path d="M1061.14 866.701C1061.14 866.701 1062.32 866.532 1064.26 866.456" stroke="#263238" stroke-miterlimit="10" stroke-linecap="round"/>
<path d="M1146.25 875.998C1155.99 874.347 1163.31 869.57 1162.59 865.329C1161.88 861.087 1153.39 858.988 1143.65 860.639C1133.9 862.289 1126.59 867.066 1127.3 871.307C1128.02 875.548 1136.51 877.648 1146.25 875.998Z" fill="#92E3A9" stroke="#263238" stroke-miterlimit="10"/>
<path d="M1128.01 868.915C1121.31 871.405 1114.73 876.257 1111.56 885.535" stroke="#263238" stroke-miterlimit="10" stroke-linecap="round"/>
<path d="M1141.06 866.456C1137.38 866.596 1132.66 867.184 1128.01 868.915" stroke="#263238" stroke-miterlimit="10" stroke-linecap="round"/>
<path d="M1147.97 866.701C1147.97 866.701 1147.19 866.59 1145.86 866.507" stroke="#263238" stroke-miterlimit="10" stroke-linecap="round"/>
<path d="M1127.87 914.873C1130.72 908.892 1132.39 901.986 1132.39 895.109C1132.39 890.85 1131.75 886.777 1130.58 883.024H1079.59C1078.42 886.777 1077.78 890.85 1077.78 895.109C1077.78 901.986 1079.45 908.892 1082.3 914.873H1127.87Z" fill="#263238"/>
<path d="M1078.28 888.674C1078.13 889.602 1078.02 890.545 1077.94 891.499H1132.23C1132.15 890.545 1132.04 889.603 1131.89 888.674H1078.28Z" fill="#7A7A7A"/>
<path d="M1131.65 903.113C1131.82 902.177 1131.97 901.235 1132.08 900.288H1078.09C1078.2 901.235 1078.35 902.176 1078.52 903.113H1131.65Z" fill="#7A7A7A"/>
<path d="M1084.37 895.265C1084.37 896.479 1083.38 897.463 1082.17 897.463C1080.96 897.463 1079.97 896.479 1079.97 895.265C1079.97 894.052 1080.96 893.068 1082.17 893.068C1083.38 893.068 1084.37 894.052 1084.37 895.265Z" fill="#8C8C8C"/>
<path d="M1095.35 895.265C1095.35 896.479 1094.37 897.463 1093.16 897.463C1091.94 897.463 1090.96 896.479 1090.96 895.265C1090.96 894.052 1091.94 893.068 1093.16 893.068C1094.37 893.068 1095.35 894.052 1095.35 895.265Z" fill="#8C8C8C"/>
<path d="M1106.34 895.265C1106.34 896.479 1105.36 897.463 1104.14 897.463C1102.93 897.463 1101.95 896.479 1101.95 895.265C1101.95 894.052 1102.93 893.068 1104.14 893.068C1105.36 893.068 1106.34 894.052 1106.34 895.265Z" fill="#8C8C8C"/>
<path d="M1117.33 895.265C1117.33 896.479 1116.34 897.463 1115.13 897.463C1113.92 897.463 1112.93 896.479 1112.93 895.265C1112.93 894.052 1113.92 893.068 1115.13 893.068C1116.34 893.068 1117.33 894.052 1117.33 895.265Z" fill="#8C8C8C"/>
<path d="M1128.31 895.265C1128.31 896.479 1127.33 897.463 1126.12 897.463C1124.9 897.463 1123.92 896.479 1123.92 895.265C1123.92 894.052 1124.9 893.068 1126.12 893.068C1127.33 893.068 1128.31 894.052 1128.31 895.265Z" fill="#8C8C8C"/>
<path d="M1423.06 615.426H1230.48V887.742H1423.06V615.426Z" fill="#263238"/>
<path d="M1418.3 610.667H1225.72V882.982H1418.3V610.667Z" fill="white" stroke="#263238" stroke-miterlimit="10" stroke-linecap="round" stroke-linejoin="round"/>
<path d="M1408.84 637.696H1233.83V687.023H1408.84V637.696Z" fill="white" stroke="#263238" stroke-miterlimit="10" stroke-linecap="round" stroke-linejoin="round"/>
<path d="M1291.27 627.56H1233.83V637.696H1291.27V627.56Z" fill="white" stroke="#263238" stroke-miterlimit="10" stroke-linecap="round" stroke-linejoin="round"/>
<path d="M1408.84 627.56H1351.41V637.696H1408.84V627.56Z" fill="white" stroke="#263238" stroke-miterlimit="10" stroke-linecap="round" stroke-linejoin="round"/>
<path d="M1233.83 653.913H1408.84" stroke="#263238" stroke-miterlimit="10" stroke-linecap="round" stroke-linejoin="round"/>
<path d="M1233.83 669.455H1408.84" stroke="#263238" stroke-miterlimit="10" stroke-linecap="round" stroke-linejoin="round"/>
<path d="M1408.84 702.213H1233.83V751.54H1408.84V702.213Z" fill="white" stroke="#263238" stroke-miterlimit="10" stroke-linecap="round" stroke-linejoin="round"/>
<path d="M1233.83 718.431H1408.84" stroke="#263238" stroke-miterlimit="10" stroke-linecap="round" stroke-linejoin="round"/>
<path d="M1233.83 733.973H1408.84" stroke="#263238" stroke-miterlimit="10" stroke-linecap="round" stroke-linejoin="round"/>
<path d="M1236.69 641.653H1257.97" stroke="#263238" stroke-miterlimit="10" stroke-linecap="round" stroke-linejoin="round"/>
<path d="M1345.22 641.653H1366.5" stroke="#263238" stroke-miterlimit="10" stroke-linecap="round" stroke-linejoin="round"/>
<path d="M1236.69 630.117H1257.97" stroke="#263238" stroke-miterlimit="10" stroke-linecap="round" stroke-linejoin="round"/>
<path d="M1352.3 630.117H1373.58" stroke="#263238" stroke-miterlimit="10" stroke-linecap="round" stroke-linejoin="round"/>
<path d="M1236.69 657.034H1257.97" stroke="#263238" stroke-miterlimit="10" stroke-linecap="round" stroke-linejoin="round"/>
<path d="M1236.69 673.953H1257.97" stroke="#263238" stroke-miterlimit="10" stroke-linecap="round" stroke-linejoin="round"/>
<path d="M1302.41 673.953H1323.69" stroke="#263238" stroke-miterlimit="10" stroke-linecap="round" stroke-linejoin="round"/>
<path d="M1298.98 628.322H1341.54" stroke="#263238" stroke-miterlimit="10" stroke-linecap="round" stroke-linejoin="round"/>
<path d="M1298.98 632.681H1341.54" stroke="#263238" stroke-miterlimit="10" stroke-linecap="round" stroke-linejoin="round"/>
<path d="M1294.69 683.149H1304.34" stroke="#263238" stroke-miterlimit="10" stroke-linecap="round" stroke-linejoin="round"/>
<path d="M1306.75 683.149H1316.4" stroke="#263238" stroke-miterlimit="10" stroke-linecap="round" stroke-linejoin="round"/>
<path d="M1318.81 683.149H1328.46" stroke="#263238" stroke-miterlimit="10" stroke-linecap="round" stroke-linejoin="round"/>
<path d="M1408.84 761.907H1233.83V811.235H1408.84V761.907Z" fill="white" stroke="#263238" stroke-miterlimit="10" stroke-linecap="round" stroke-linejoin="round"/>
<path d="M1237.67 774.597C1237.67 774.597 1240.92 766.459 1238.97 768.412C1237.02 770.365 1235.39 777.201 1240.27 775.573C1245.16 773.946 1248.41 766.784 1247.11 769.714C1245.81 772.643 1246.46 774.922 1250.36 772.643C1254.27 770.365 1254.92 770.365 1255.25 771.667C1255.57 772.969 1256.55 772.643 1260.13 771.341C1263.71 770.039 1263.38 772.318 1263.38 773.295C1263.38 774.271 1267.94 773.946 1269.57 773.295C1271.2 772.643 1272.5 770.69 1272.82 772.969C1273.15 775.248 1276.4 775.248 1276.4 775.248C1276.4 775.248 1279.01 775.248 1280.31 775.248C1281.61 775.248 1285.19 775.248 1285.19 775.248" stroke="#92E3A9" stroke-miterlimit="10" stroke-linecap="round" stroke-linejoin="round"/>
<path d="M1233.83 778.125H1408.84" stroke="#263238" stroke-miterlimit="10" stroke-linecap="round" stroke-linejoin="round"/>
<path d="M1233.83 793.666H1408.84" stroke="#263238" stroke-miterlimit="10" stroke-linecap="round" stroke-linejoin="round"/>
<path d="M1236.69 765.864H1257.97" stroke="#263238" stroke-miterlimit="10" stroke-linecap="round" stroke-linejoin="round"/>
<path d="M1345.22 765.864H1366.5" stroke="#263238" stroke-miterlimit="10" stroke-linecap="round" stroke-linejoin="round"/>
<path d="M1236.69 781.246H1257.97" stroke="#263238" stroke-miterlimit="10" stroke-linecap="round" stroke-linejoin="round"/>
<path d="M1236.69 798.165H1257.97" stroke="#263238" stroke-miterlimit="10" stroke-linecap="round" stroke-linejoin="round"/>
<path d="M1302.41 798.165H1323.69" stroke="#263238" stroke-miterlimit="10" stroke-linecap="round" stroke-linejoin="round"/>
<path d="M1294.69 807.361H1304.34" stroke="#263238" stroke-miterlimit="10" stroke-linecap="round" stroke-linejoin="round"/>
<path d="M1306.75 807.361H1316.4" stroke="#263238" stroke-miterlimit="10" stroke-linecap="round" stroke-linejoin="round"/>
<path d="M1318.81 807.361H1328.46" stroke="#263238" stroke-miterlimit="10" stroke-linecap="round" stroke-linejoin="round"/>
<path d="M1238.01 707.267H1288.06" stroke="#263238" stroke-miterlimit="10" stroke-linecap="round" stroke-linejoin="round"/>
<path d="M1238.01 723.548H1268.77" stroke="#263238" stroke-miterlimit="10" stroke-linecap="round" stroke-linejoin="round"/>
<path d="M1315.8 723.548H1346.55" stroke="#263238" stroke-miterlimit="10" stroke-linecap="round" stroke-linejoin="round"/>
<path d="M1364.03 744.049H1394.79" stroke="#263238" stroke-miterlimit="10" stroke-linecap="round" stroke-linejoin="round"/>
<path d="M1357.4 723.548H1388.15" stroke="#263238" stroke-miterlimit="10" stroke-linecap="round" stroke-linejoin="round"/>
<path d="M1358.61 740.431H1351.37V747.666H1358.61V740.431Z" stroke="#263238" stroke-miterlimit="10" stroke-linecap="round" stroke-linejoin="round"/>
<path d="M1313.99 744.049H1344.74" stroke="#263238" stroke-miterlimit="10" stroke-linecap="round" stroke-linejoin="round"/>
<path d="M1308.56 740.431H1301.33V747.666H1308.56V740.431Z" stroke="#263238" stroke-miterlimit="10" stroke-linecap="round" stroke-linejoin="round"/>
<path d="M1263.94 744.049H1294.69" stroke="#263238" stroke-miterlimit="10" stroke-linecap="round" stroke-linejoin="round"/>
<path d="M1258.51 740.431H1251.28V747.666H1258.51V740.431Z" stroke="#263238" stroke-miterlimit="10" stroke-linecap="round" stroke-linejoin="round"/>
<path d="M1387.89 820.625H1408.05" stroke="#263238" stroke-miterlimit="10" stroke-linecap="round" stroke-linejoin="round"/>
<path d="M1307.85 820.625H1385.29" stroke="#263238" stroke-miterlimit="10" stroke-linecap="round" stroke-linejoin="round"/>
<path d="M1257.96 820.625H1305.52" stroke="#263238" stroke-miterlimit="10" stroke-linecap="round" stroke-linejoin="round"/>
<path d="M1235 820.625H1256.14" stroke="#263238" stroke-miterlimit="10" stroke-linecap="round" stroke-linejoin="round"/>
<path d="M1363.98 825.302H1408.05" stroke="#263238" stroke-miterlimit="10" stroke-linecap="round" stroke-linejoin="round"/>
<path d="M1279.79 825.302H1361.9" stroke="#263238" stroke-miterlimit="10" stroke-linecap="round" stroke-linejoin="round"/>
<path d="M1235 825.302H1277.19" stroke="#263238" stroke-miterlimit="10" stroke-linecap="round" stroke-linejoin="round"/>
<path d="M1375.42 829.98H1408.05" stroke="#263238" stroke-miterlimit="10" stroke-linecap="round" stroke-linejoin="round"/>
<path d="M1305.26 829.98H1373.6" stroke="#263238" stroke-miterlimit="10" stroke-linecap="round" stroke-linejoin="round"/>
<path d="M1265.24 829.98H1301.62" stroke="#263238" stroke-miterlimit="10" stroke-linecap="round" stroke-linejoin="round"/>
<path d="M1235 829.98H1262.9" stroke="#263238" stroke-miterlimit="10" stroke-linecap="round" stroke-linejoin="round"/>
<path d="M1393.34 834.658H1408.05" stroke="#263238" stroke-miterlimit="10" stroke-linecap="round" stroke-linejoin="round"/>
<path d="M1246.01 834.658H1390.75" stroke="#263238" stroke-miterlimit="10" stroke-linecap="round" stroke-linejoin="round"/>
<path d="M1235 834.658H1243.93" stroke="#263238" stroke-miterlimit="10" stroke-linecap="round" stroke-linejoin="round"/>
<path d="M1396.72 839.335H1408.05" stroke="#263238" stroke-miterlimit="10" stroke-linecap="round" stroke-linejoin="round"/>
<path d="M1360.6 839.335H1394.38" stroke="#263238" stroke-miterlimit="10" stroke-linecap="round" stroke-linejoin="round"/>
<path d="M1305.26 839.335H1358.78" stroke="#263238" stroke-miterlimit="10" stroke-linecap="round" stroke-linejoin="round"/>
<path d="M1253.55 839.335H1303.18" stroke="#263238" stroke-miterlimit="10" stroke-linecap="round" stroke-linejoin="round"/>
<path d="M1235 839.335H1250.69" stroke="#263238" stroke-miterlimit="10" stroke-linecap="round" stroke-linejoin="round"/>
<path d="M1387.63 844.012H1408.05" stroke="#263238" stroke-miterlimit="10" stroke-linecap="round" stroke-linejoin="round"/>
<path d="M1322.15 844.012H1384.77" stroke="#263238" stroke-miterlimit="10" stroke-linecap="round" stroke-linejoin="round"/>
<path d="M1279.79 844.012H1318.77" stroke="#263238" stroke-miterlimit="10" stroke-linecap="round" stroke-linejoin="round"/>
<path d="M1235 844.012H1277.19" stroke="#263238" stroke-miterlimit="10" stroke-linecap="round" stroke-linejoin="round"/>
<path d="M1357.75 848.689H1408.05" stroke="#263238" stroke-miterlimit="10" stroke-linecap="round" stroke-linejoin="round"/>
<path d="M1257.96 848.689H1354.11" stroke="#263238" stroke-miterlimit="10" stroke-linecap="round" stroke-linejoin="round"/>
<path d="M1235 848.689H1255.11" stroke="#263238" stroke-miterlimit="10" stroke-linecap="round" stroke-linejoin="round"/>
<path d="M1236.81 862.833H1258.52" stroke="#263238" stroke-miterlimit="10" stroke-linecap="round" stroke-linejoin="round"/>
<path d="M1344.14 862.833H1365.84" stroke="#263238" stroke-miterlimit="10" stroke-linecap="round" stroke-linejoin="round"/>
<path d="M1263.94 862.833H1336.9" stroke="#263238" stroke-miterlimit="10" stroke-linecap="round" stroke-linejoin="round"/>
<path d="M1371.87 862.833H1407.45" stroke="#263238" stroke-miterlimit="10" stroke-linecap="round" stroke-linejoin="round"/>
<path d="M1239.52 716.405C1239.52 716.405 1242.87 717.179 1243.65 713.308C1244.42 709.437 1241.32 711.502 1241.32 713.566C1241.32 715.63 1242.36 717.695 1246.23 714.599C1250.1 711.502 1249.07 712.019 1251.39 714.341C1253.71 716.663 1251.65 717.179 1256.29 715.373C1260.94 713.567 1261.19 714.341 1260.94 715.889C1260.68 717.437 1259.65 716.664 1264.03 715.115C1268.42 713.567 1270.48 712.277 1269.97 714.341C1269.45 716.405 1267.65 716.921 1271 714.599C1274.36 712.277 1276.42 704.793 1273.58 710.47C1270.74 716.147 1269.71 715.373 1273.84 714.599C1277.97 713.824 1279.26 710.986 1279.26 713.05C1279.26 715.114 1275.9 716.405 1279.26 715.114C1282.61 713.824 1283.9 712.534 1283.9 713.824C1283.9 715.114 1280.81 717.436 1285.19 715.371C1289.58 713.307 1290.87 710.984 1290.87 712.791C1290.87 714.597 1290.1 714.082 1290.87 714.597C1291.64 715.113 1290.1 713.565 1292.42 714.339C1294.74 715.113 1293.71 716.661 1297.06 715.371C1300.42 714.081 1300.16 712.275 1301.97 714.081C1303.77 715.888 1301.97 718.468 1306.87 716.145C1311.77 713.823 1313.06 715.113 1314.61 715.371C1316.16 715.629 1317.45 715.629 1318.48 715.629C1319.51 715.629 1319.26 714.596 1321.84 715.629C1324.42 716.661 1325.19 716.661 1326.74 716.661C1328.29 716.661 1329.84 716.661 1329.84 716.661" stroke="#92E3A9" stroke-miterlimit="10" stroke-linecap="round" stroke-linejoin="round"/>
<path d="M1345.57 716.663C1345.57 716.663 1346.86 716.147 1349.19 714.857C1351.51 713.567 1357.44 709.18 1357.7 712.019C1357.96 714.857 1351.25 718.47 1352.03 715.373C1352.8 712.277 1357.44 713.825 1360.8 715.115C1364.15 716.405 1364.93 714.857 1369.06 714.857C1373.19 714.857 1372.67 716.147 1374.73 716.663C1376.8 717.179 1376.02 716.663 1379.64 715.115C1383.25 713.567 1380.67 706.084 1378.35 711.244C1376.02 716.405 1375.25 718.47 1380.67 715.889C1386.09 713.309 1384.54 716.406 1385.31 716.406C1386.09 716.406 1384.8 716.664 1387.89 715.373C1390.99 714.083 1387.12 715.889 1389.44 716.406C1391.76 716.922 1393.05 714.341 1395.12 713.567C1397.18 712.793 1397.44 715.115 1397.44 715.115H1399.5" stroke="#92E3A9" stroke-miterlimit="10" stroke-linecap="round" stroke-linejoin="round"/>
<path d="M1237.97 666.86C1237.97 666.86 1239.26 666.344 1241.32 663.248C1243.39 660.151 1240.03 659.119 1239.26 662.473C1238.49 665.828 1236.68 669.699 1242.36 666.86C1248.03 664.022 1245.97 658.602 1244.16 662.731C1242.36 666.86 1242.87 670.989 1248.29 667.892C1253.71 664.795 1254.23 662.989 1255 664.537C1255.77 666.085 1252.94 666.601 1257.58 666.859C1262.23 667.118 1263 665.569 1265.06 664.795C1267.13 664.021 1268.16 664.795 1268.16 664.795C1268.16 664.795 1268.94 665.054 1269.97 665.054C1271 665.054 1272.29 664.279 1272.81 665.054C1273.32 665.828 1267.64 666.859 1274.35 665.828C1281.06 664.795 1282.61 660.409 1283.13 663.764C1283.64 667.118 1278.48 669.957 1278.48 666.86C1278.48 663.764 1281.58 660.667 1286.48 663.506C1291.38 666.344 1291.13 667.118 1293.71 667.635C1296.29 668.151 1300.42 665.312 1300.42 665.312C1300.42 665.312 1300.16 665.571 1301.71 666.345C1303.26 667.119 1302.74 667.119 1305.58 666.345C1308.42 665.571 1306.09 666.087 1309.96 665.571C1313.84 665.054 1315.64 665.312 1314.09 666.603C1312.55 667.894 1308.16 666.087 1313.84 665.055C1319.51 664.023 1320.29 665.83 1320.29 666.603C1320.29 667.377 1321.83 667.635 1323.12 667.119C1324.42 666.603 1327 666.345 1327 666.345" stroke="#92E3A9" stroke-miterlimit="10" stroke-linecap="round" stroke-linejoin="round"/>
<path d="M1244.68 651.636C1244.68 651.636 1247.92 651.129 1250.79 650.115C1252.5 649.512 1254.07 648.729 1254.74 647.766C1256.55 645.186 1251.13 645.96 1247.78 649.315C1244.42 652.669 1249.84 652.927 1256.81 650.605C1263.77 648.283 1263.52 642.347 1258.87 646.734C1254.23 651.121 1256.03 652.153 1263.26 650.605C1270.48 649.057 1279.51 647.251 1276.68 649.831C1273.84 652.411 1273.06 651.121 1277.97 650.089C1282.87 649.057 1285.97 646.734 1285.19 648.54C1284.42 650.347 1282.35 652.669 1286.22 650.863C1290.1 649.057 1289.58 650.863 1289.58 650.863C1296.55 650.088 1300.42 641.315 1295.51 644.411C1290.61 647.508 1290.61 651.637 1295 651.379C1299.38 651.121 1303.51 646.992 1301.45 649.057C1299.38 651.121 1296.03 652.669 1303.25 650.863C1310.48 649.057 1312.8 645.186 1312.29 647.766C1311.77 650.346 1311.51 650.088 1314.09 650.088C1316.67 650.088 1321.32 646.476 1319.77 649.056C1318.22 651.636 1317.45 651.894 1319.77 651.378C1322.09 650.862 1325.45 649.056 1326.48 649.056C1327.51 649.056 1324.41 651.894 1327.51 651.636C1330.61 651.378 1337.06 647.507 1337.06 647.507" stroke="#92E3A9" stroke-miterlimit="10" stroke-linecap="round" stroke-linejoin="round"/>
<path d="M1329.83 647.507C1329.83 647.507 1336.28 651.894 1337.83 651.894" stroke="#92E3A9" stroke-miterlimit="10" stroke-linecap="round" stroke-linejoin="round"/>
<path d="M1303.08 742.281L1303.85 745.862L1311.78 736.398" stroke="#92E3A9" stroke-miterlimit="10" stroke-linecap="round" stroke-linejoin="round"/>
<path d="M1215.37 898.396L1221.83 904.69C1221.83 904.69 1236.57 910.158 1237.23 911.151C1237.9 912.145 1237.23 914.961 1237.23 914.961H1203.27L1204.17 901.437L1215.37 898.396Z" fill="white" stroke="#263238" stroke-miterlimit="10" stroke-linecap="round" stroke-linejoin="round"/>
<path d="M1237.52 912.808H1203.42L1203.27 914.961H1237.23C1237.23 914.961 1237.49 913.87 1237.52 912.808Z" fill="white" stroke="#263238" stroke-miterlimit="10" stroke-linecap="round" stroke-linejoin="round"/>
<path d="M1145.58 790.303L1150.24 845.377C1150.24 845.377 1146.48 878.547 1146.48 881.835C1146.48 885.123 1144.84 895.809 1144.84 895.809L1156.07 897.18L1171.06 840.446L1173.25 817.43L1191.61 858.804L1204.17 901.437L1215.37 898.396L1206.68 843.733L1190.58 792.221L1189.42 786.193L1145.58 786.742L1145.58 790.303Z" fill="#263238" stroke="#263238" stroke-miterlimit="10" stroke-linecap="round" stroke-linejoin="round"/>
<path d="M1144.84 895.81L1141.55 904.785C1141.55 904.785 1135.42 911.908 1135.92 913.233C1136.41 914.559 1137.57 914.89 1137.57 914.89H1152.81C1152.81 914.89 1153.97 914.724 1154.31 913.233C1154.64 911.742 1154.64 909.589 1154.64 909.589L1156.07 897.179L1144.84 895.81Z" fill="white" stroke="#263238" stroke-miterlimit="10" stroke-linecap="round" stroke-linejoin="round"/>
<path d="M1154.31 913.233C1154.35 913.023 1154.39 912.799 1154.43 912.571H1135.99C1135.9 912.851 1135.86 913.084 1135.92 913.233C1136.41 914.559 1137.57 914.89 1137.57 914.89H1152.81C1152.81 914.89 1153.97 914.725 1154.31 913.233Z" fill="white" stroke="#263238" stroke-miterlimit="10" stroke-linecap="round" stroke-linejoin="round"/>
<path d="M1161.2 711.46C1161.2 711.46 1146.81 712.282 1142.5 715.159C1138.18 718.036 1117.22 735.298 1117.22 735.298L1118.29 753.251L1141.47 736.531L1144.76 794.482L1190.58 792.221L1189.55 759.958L1188.94 758.93C1188.94 758.93 1203.73 774.137 1209.28 773.726C1214.83 773.315 1216.06 764.068 1211.95 758.314C1207.84 752.56 1201.68 744.34 1197.36 738.175C1193.05 732.01 1193.05 722.968 1186.68 718.652C1180.31 714.337 1169.21 711.871 1169.21 711.871L1161.2 711.46Z" fill="#92E3A9" stroke="#263238" stroke-miterlimit="10" stroke-linecap="round" stroke-linejoin="round"/>
<path d="M1189.55 759.958L1188.65 741.409" stroke="#263238" stroke-miterlimit="10" stroke-linecap="round" stroke-linejoin="round"/>
<path d="M1191.59 748.794L1192.12 745.618" stroke="#263238" stroke-miterlimit="10" stroke-linecap="round" stroke-linejoin="round"/>
<path d="M1189.89 758.986L1191.21 751.077" stroke="#263238" stroke-miterlimit="10" stroke-linecap="round" stroke-linejoin="round"/>
<path d="M1170.74 770.842L1172.81 773.096" stroke="#263238" stroke-miterlimit="10" stroke-linecap="round" stroke-linejoin="round"/>
<path d="M1148.55 746.607L1169.44 769.421" stroke="#263238" stroke-miterlimit="10" stroke-linecap="round" stroke-linejoin="round"/>
<path d="M1156.05 761.457L1164.15 769.383" stroke="#263238" stroke-miterlimit="10" stroke-linecap="round" stroke-linejoin="round"/>
<path d="M1152.01 757.501L1154.34 759.778" stroke="#263238" stroke-miterlimit="10" stroke-linecap="round" stroke-linejoin="round"/>
<path d="M1148.3 732.001L1141.47 736.531L1148.05 735.963" stroke="#263238" stroke-miterlimit="10" stroke-linecap="round" stroke-linejoin="round"/>
<path d="M1159.77 694.699C1159.77 694.699 1160.51 699.526 1160.51 704.168C1160.51 708.809 1159.77 713.45 1159.77 713.45C1159.77 713.45 1169.05 727.56 1170.72 728.674C1172.39 729.788 1173.51 724.961 1173.51 722.919C1173.51 720.877 1173.69 714.936 1173.69 714.936V708.252L1159.77 694.699Z" fill="#B0B0B0" stroke="#263238" stroke-miterlimit="10" stroke-linecap="round" stroke-linejoin="round"/>
<path d="M1173.66 715.852C1173.68 715.29 1173.69 714.935 1173.69 714.935V708.251L1170.54 705.186L1162.84 702.076L1173.66 715.852Z" fill="#263238" stroke="#263238" stroke-miterlimit="10" stroke-linecap="round" stroke-linejoin="round"/>
<path d="M1182.42 676.133C1182.42 676.133 1184.64 683.373 1184.83 686.344C1185.02 689.315 1183.35 691.542 1183.35 692.471C1183.35 693.399 1185.94 697.112 1185.94 698.411C1185.94 699.711 1182.79 701.382 1182.79 701.382C1182.79 701.382 1181.49 708.251 1178.15 710.479C1174.81 712.707 1167.19 707.323 1164.22 704.538C1161.25 701.753 1159.95 699.154 1159.02 696.184C1158.1 693.214 1159.21 686.345 1161.07 680.775C1162.92 675.205 1167.01 672.606 1171.28 671.864C1175.55 671.121 1181.86 673.534 1182.42 676.133Z" fill="#B0B0B0" stroke="#263238" stroke-miterlimit="10" stroke-linecap="round" stroke-linejoin="round"/>
<path d="M1179.63 693.677C1179.63 694.549 1179.34 695.255 1178.98 695.255C1178.62 695.255 1178.33 694.549 1178.33 693.677C1178.33 692.806 1178.62 692.099 1178.98 692.099C1179.34 692.1 1179.63 692.806 1179.63 693.677Z" fill="#263238"/>
<path d="M1177.78 690.429C1177.78 690.429 1180.38 689.129 1181.86 690.8" stroke="#263238" stroke-miterlimit="10" stroke-linecap="round" stroke-linejoin="round"/>
<path d="M1179.26 704.167C1179.26 704.167 1175.36 702.867 1175.18 700.082" stroke="#263238" stroke-miterlimit="10" stroke-linecap="round" stroke-linejoin="round"/>
<path d="M1160.5 694.018C1160.5 694.018 1164.03 694.575 1164.4 692.718C1164.77 690.861 1162.54 690.49 1164.96 688.819C1167.37 687.148 1169.04 687.148 1169.78 686.034C1170.53 684.92 1169.49 683.125 1170.79 680.155C1172.09 677.185 1173.65 677.954 1177.36 678.511C1181.07 679.069 1183.52 680.651 1183.52 680.651C1183.52 680.651 1185.8 675.817 1183.39 673.032C1180.98 670.247 1173.3 667.418 1164.76 670.018C1156.22 672.617 1153.63 678.794 1152.89 685.478C1152.15 692.161 1154.75 695.874 1157.16 696.617C1159.57 697.359 1160.5 694.018 1160.5 694.018Z" fill="#263238" stroke="#263238" stroke-miterlimit="10" stroke-linecap="round" stroke-linejoin="round"/>
<path d="M1162.37 693.584C1162.37 693.584 1160.14 686.715 1158.28 690.243C1156.43 693.77 1157.35 696.741 1159.21 697.855C1161.07 698.968 1161.81 696.927 1161.81 696.927" fill="#B0B0B0"/>
<path d="M1162.37 693.584C1162.37 693.584 1160.14 686.715 1158.28 690.243C1156.43 693.77 1157.35 696.741 1159.21 697.855C1161.07 698.968 1161.81 696.927 1161.81 696.927" stroke="#263238" stroke-miterlimit="10" stroke-linecap="round" stroke-linejoin="round"/>
<path d="M1203.41 763.894C1205.77 759.544 1216.25 746.752 1216.25 746.752L1223.08 750.064C1223.08 750.064 1217.91 768.899 1215.42 771.59C1212.94 774.28 1210.21 775.19 1207.32 773.12" fill="#B0B0B0"/>
<path d="M1203.41 763.894C1205.77 759.544 1216.25 746.752 1216.25 746.752L1223.08 750.064C1223.08 750.064 1217.91 768.899 1215.42 771.59C1212.94 774.28 1210.21 775.19 1207.32 773.12" stroke="#263238" stroke-miterlimit="10" stroke-linecap="round" stroke-linejoin="round"/>
<path d="M1207.47 772.971C1210.19 774.453 1213.31 773.89 1215.57 771.44C1216.32 770.628 1217.32 768.344 1218.34 765.553C1210.91 766.834 1207.5 761.864 1206.34 759.539C1204.71 761.791 1203.46 763.703 1203.16 764.609C1203.07 764.863 1203.75 768.013 1203.71 768.247" fill="#92E3A9"/>
<path d="M1207.47 772.971C1210.19 774.453 1213.31 773.89 1215.57 771.44C1216.32 770.628 1217.32 768.344 1218.34 765.553C1210.91 766.834 1207.5 761.864 1206.34 759.539C1204.71 761.791 1203.46 763.703 1203.16 764.609C1203.07 764.863 1203.75 768.013 1203.71 768.247" stroke="#263238" stroke-miterlimit="10" stroke-linecap="round" stroke-linejoin="round"/>
<path d="M1285.19 775.515C1285.04 775.515 1284.88 775.484 1284.72 775.42L1275.95 771.775C1275.32 771.515 1275.03 770.793 1275.29 770.164C1275.55 769.536 1276.27 769.238 1276.9 769.499L1285.67 773.143C1286.3 773.404 1286.6 774.126 1286.33 774.754C1286.14 775.229 1285.68 775.515 1285.19 775.515Z" fill="white" stroke="#263238" stroke-miterlimit="10" stroke-linecap="round" stroke-linejoin="round"/>
<path d="M1257.81 769.129L1062.87 681.644C1059.76 680.25 1058.37 676.602 1059.77 673.496C1061.16 670.389 1064.81 669.001 1067.92 670.395L1262.86 757.879L1257.81 769.129Z" fill="white" stroke="#263238" stroke-miterlimit="10" stroke-linecap="round" stroke-linejoin="round"/>
<path d="M1089.33 680.002L1067.92 670.394C1064.81 669 1061.16 670.388 1059.77 673.495C1058.37 676.601 1059.76 680.249 1062.87 681.643L1083.75 691.085L1089.33 680.002Z" fill="white" stroke="#263238" stroke-miterlimit="10" stroke-linecap="round" stroke-linejoin="round"/>
<path d="M1262.86 757.879L1282.37 771.247L1281.15 773.839L1257.81 769.129L1262.86 757.879Z" fill="white" stroke="#263238" stroke-miterlimit="10" stroke-linecap="round" stroke-linejoin="round"/>
<path d="M1084.14 677.676L1067.92 670.394C1064.81 669 1061.16 670.388 1059.77 673.495C1058.37 676.601 1059.76 680.249 1062.87 681.643L1078.42 688.622L1084.14 677.676Z" fill="#92E3A9" stroke="#263238" stroke-miterlimit="10" stroke-linecap="round" stroke-linejoin="round"/>
<path d="M1103.86 690.499C1103.86 690.499 1102.22 699.335 1103.45 700.979C1104.68 702.623 1111.46 708.788 1111.46 708.788C1111.46 708.788 1108.79 744.751 1109.41 748.039C1110.03 751.327 1117.01 753.793 1119.27 753.176C1121.53 752.56 1123.18 750.094 1125.23 745.573C1127.29 741.052 1118.04 709.405 1118.04 707.966C1118.04 706.528 1113.73 695.431 1113.73 695.431C1113.73 695.431 1117.22 692.965 1117.84 692.143C1118.45 691.321 1115.37 691.937 1114.75 691.937C1114.14 691.937 1109.62 691.115 1108.79 690.704C1107.97 690.293 1103.86 690.499 1103.86 690.499Z" fill="#B0B0B0" stroke="#263238" stroke-miterlimit="10" stroke-linecap="round" stroke-linejoin="round"/>
<path d="M1113.81 691.892C1113.81 691.892 1110.9 692.619 1111 693.347C1111.11 694.074 1111.11 698.648 1111.11 698.648" fill="white"/>
<path d="M1113.81 691.892C1113.81 691.892 1110.9 692.619 1111 693.347C1111.11 694.074 1111.11 698.648 1111.11 698.648" stroke="#263238" stroke-miterlimit="10" stroke-linecap="round" stroke-linejoin="round"/>
<path d="M1109.34 691.164C1109.34 691.164 1106.84 691.061 1106.84 692.411C1106.84 693.763 1106.84 698.128 1106.84 698.128" fill="white"/>
<path d="M1109.34 691.164C1109.34 691.164 1106.84 691.061 1106.84 692.411C1106.84 693.763 1106.84 698.128 1106.84 698.128" stroke="#263238" stroke-miterlimit="10" stroke-linecap="round" stroke-linejoin="round"/>
<path d="M1103.83 691.06L1104.24 698.128" stroke="#263238" stroke-miterlimit="10" stroke-linecap="round" stroke-linejoin="round"/>
<path d="M1119.27 753.176C1121.53 752.56 1123.18 750.094 1125.23 745.573C1126.01 743.868 1125.18 738.306 1123.84 731.963C1118.4 735.681 1112.79 734.603 1109.82 733.567C1109.42 740.627 1109.17 746.769 1109.41 748.039C1110.03 751.327 1117.01 753.793 1119.27 753.176Z" fill="#92E3A9" stroke="#263238" stroke-miterlimit="10" stroke-linecap="round" stroke-linejoin="round"/>
<path d="M1216.17 736.902C1216.17 736.902 1217.55 735.682 1219.22 735.834C1220.9 735.987 1221.21 738.427 1221.05 740.562C1220.9 742.696 1218.61 743.154 1218.31 741.781C1218 740.409 1217.7 738.274 1217.7 738.274L1216.17 736.902Z" fill="#B0B0B0" stroke="#263238" stroke-miterlimit="10" stroke-linecap="round" stroke-linejoin="round"/>
<path d="M1220.75 736.75C1220.75 736.75 1222.73 736.14 1223.65 738.123C1224.56 740.105 1223.49 742.698 1222.43 742.85C1221.36 743.003 1221.05 740.562 1221.05 740.562L1220.75 736.75Z" fill="#B0B0B0" stroke="#263238" stroke-miterlimit="10" stroke-linecap="round" stroke-linejoin="round"/>
<path d="M1223.65 738.122C1223.65 738.122 1225.17 737.359 1225.78 739.19C1226.39 741.019 1227 743.307 1225.63 743.307C1224.26 743.307 1223.8 740.867 1223.8 740.867L1223.65 738.122Z" fill="#B0B0B0" stroke="#263238" stroke-miterlimit="10" stroke-linecap="round" stroke-linejoin="round"/>
<path d="M1225.78 739.19C1225.78 739.19 1227.76 739.037 1228.22 740.258C1228.68 741.477 1229.6 743.765 1227.92 743.765C1227.46 743.765 1226.39 741.63 1226.39 741.63L1225.78 739.19Z" fill="#B0B0B0" stroke="#263238" stroke-miterlimit="10" stroke-linecap="round" stroke-linejoin="round"/>
</g>
<defs>
<clipPath id="clip0_8_1462">
<rect width="1440" height="1024" fill="white"/>
</clipPath>
</defs>
</svg>
